<svg width="426" height="401" viewBox="0 0 426 401" fill="none" xmlns="http://www.w3.org/2000/svg">
<path d="M228.362 16.0852C207.239 15.8862 79.3079 13.9072 75.5469 49.5582C71.9429 83.7042 121.514 71.2032 121.997 86.3542C122.511 102.27 113.058 106.876 86.6719 105.867C75.2369 105.429 39.1489 109.473 38.5729 132.253C37.9969 154.906 78.2959 152.046 76.3019 170.842C75.1459 192.205 44.5389 196.852 32.4829 202.5C19.3829 209.352 -4.72608 220.649 0.812924 244.899C8.10392 273.02 54.3999 267.963 71.8379 271.427C83.4839 273.318 120.517 276.583 115.25 301.503C112.482 316.479 82.0829 317.353 87.8949 336.568C93.7759 354.532 146.787 358.082 157.526 358.664C202.102 361.075 299.987 365.018 343.584 346.629C359.612 339.936 373.761 331.876 372.12 307.841C371.324 286.374 359.745 283.228 379.246 266.639C391.573 255.962 415.174 256.821 413.778 225.657C413.024 208.844 370.021 201.863 370.974 184.27C372.47 156.624 425.26 180.099 425.453 131.198C425.571 100.675 329.533 117.751 330.513 87.5582C329.218 75.3052 350.358 70.1042 349.449 56.5432C349.946 34.8262 325.071 18.7562 228.362 16.0852Z" fill="#799FF8"/>
<path d="M144.559 237.501C144.455 237.565 144.33 237.603 144.175 237.603C119.665 237.603 95.1553 237.603 70.6463 237.603C70.3203 237.603 69.9933 237.375 69.9183 237.05C69.1143 233.554 73.1583 230.806 75.8893 232.148C76.2743 230.371 78.0343 229.145 79.8733 229.373C78.8633 226.181 80.2603 222.948 83.6133 221.396C86.6973 219.963 89.5693 221.142 91.3983 223.476C92.4513 218.062 97.1213 213.383 102.807 212.991C105.898 212.782 109.17 213.652 111.575 215.679C113.975 217.694 114.757 219.901 115.357 222.605C117.153 220.026 120.06 218.807 123.403 219.844C126.704 220.868 127.121 224.239 126.968 227.268C129.628 225.06 132.826 223.988 136.297 226.076C139.179 227.809 139.802 230.596 139.922 233.623C142.29 232.213 144.741 233.611 144.931 236.851C144.951 237.181 144.787 237.397 144.559 237.501Z" fill="#B5DBFF"/>
<path d="M349.67 85.1172C349.67 99.2122 387.909 101.811 389.895 85.1172C391.881 68.4202 349.67 63.9552 349.67 85.1172Z" fill="#B5DBFF"/>
<path d="M40.9336 301.913C40.9336 316.009 88.2546 318.734 89.9696 301.913C92.0856 281.175 40.9336 277.23 40.9336 301.913Z" fill="#B5DBFF"/>
<path d="M316.734 381.424C316.734 398.141 372.855 401.373 374.889 381.424C377.397 356.83 316.734 352.151 316.734 381.424Z" fill="#B5DBFF"/>
<path d="M36.9336 86.1111C36.9336 95.3141 63.0186 97.0941 63.9636 86.1111C65.1306 72.5731 36.9336 69.9971 36.9336 86.1111Z" fill="#B5DBFF"/>
<path d="M186.407 250.008C187.185 246.094 181.396 242.497 176.935 243.94C177.663 241.256 176.833 238.822 172.879 237.621C171.231 237.121 169.251 237.127 167.512 237.597C170.631 231.379 167.729 224.299 158.089 222.836C147.609 221.243 135.977 226.387 133.897 234.664C125.374 226.289 107.314 236.323 112.645 245.962C109.352 245.438 105.959 247.303 105.758 250.073C102.424 248.94 99.7969 252.339 101.854 255.266C102.003 255.48 102.311 255.614 102.618 255.614C132.27 255.614 161.924 255.614 191.575 255.614C191.802 255.614 191.98 255.556 192.116 255.469C192.257 255.388 192.37 255.267 192.428 255.099C193.441 252.214 189.71 249.477 186.407 250.008Z" fill="white"/>
<path d="M187.328 316.363C187.674 314.632 185.112 313.042 183.14 313.679C183.463 312.491 183.095 311.414 181.347 310.884C180.618 310.664 179.744 310.666 178.974 310.873C180.353 308.124 179.069 304.993 174.806 304.347C170.171 303.642 165.029 305.918 164.108 309.577C160.338 305.872 152.354 310.31 154.712 314.572C153.255 314.34 151.753 315.165 151.665 316.39C150.19 315.89 149.029 317.393 149.94 318.686C150.005 318.781 150.141 318.84 150.277 318.84C163.389 318.84 176.502 318.84 189.614 318.84C189.713 318.84 189.794 318.816 189.854 318.777C189.916 318.74 189.965 318.687 189.99 318.612C190.438 317.338 188.79 316.126 187.328 316.363Z" fill="white"/>
<path d="M346.129 155.969C346.207 156.016 346.3 156.044 346.415 156.044C364.646 156.044 382.879 156.044 401.11 156.044C401.352 156.044 401.595 155.874 401.651 155.632C402.25 153.032 399.241 150.988 397.21 151.986C396.924 150.664 395.614 149.752 394.246 149.922C394.997 147.548 393.958 145.144 391.464 143.988C389.17 142.923 387.033 143.799 385.673 145.535C384.89 141.508 381.416 138.027 377.187 137.736C374.887 137.579 372.454 138.227 370.665 139.734C368.88 141.233 368.298 142.876 367.851 144.886C366.515 142.968 364.353 142.061 361.866 142.833C359.411 143.595 359.1 146.103 359.214 148.355C357.235 146.713 354.857 145.915 352.275 147.468C350.131 148.757 349.668 150.83 349.579 153.081C347.817 152.033 345.994 153.073 345.853 155.482C345.838 155.731 345.96 155.891 346.129 155.969Z" fill="white"/>
<path d="M203.557 57.7505C203.612 57.7825 203.672 57.8025 203.75 57.8025C216.072 57.8025 228.392 57.8025 240.713 57.8025C240.877 57.8025 241.041 57.6875 241.078 57.5235C241.483 55.7675 239.45 54.3865 238.076 55.0605C237.884 54.1675 237 53.5505 236.073 53.6645C236.582 52.0605 235.881 50.4355 234.194 49.6555C232.644 48.9365 231.202 49.5285 230.281 50.7015C229.752 47.9805 227.403 45.6275 224.545 45.4315C222.99 45.3255 221.347 45.7635 220.138 46.7815C218.932 47.7955 218.54 48.9045 218.237 50.2635C217.335 48.9675 215.873 48.3545 214.192 48.8755C212.531 49.3895 212.322 51.0845 212.4 52.6075C211.061 51.4975 209.456 50.9595 207.709 52.0085C206.26 52.8795 205.948 54.2795 205.888 55.8015C204.698 55.0925 203.467 55.7965 203.37 57.4245C203.361 57.5905 203.443 57.6985 203.557 57.7505Z" fill="white"/>
<path d="M291.122 378.461C291.117 378.318 291.07 378.204 291.009 378.107C290.906 377.898 290.71 377.739 290.404 377.744C281.096 377.892 271.792 378.046 262.482 378.195C262.104 378.201 261.75 378.515 261.766 378.912C261.99 384.294 261.532 389.838 262.421 395.169C263.25 400.138 268.699 400.519 272.909 400.763C278.306 401.076 286.011 401.267 289.113 398.411C292.703 395.101 291.308 383.733 291.122 378.461Z" fill="#727595"/>
<path d="M266.619 388.974C262.395 388.974 261.43 384.996 261.419 384.953C261.365 384.722 261.511 384.492 261.741 384.438C261.976 384.389 262.205 384.53 262.259 384.76C262.297 384.924 263.277 388.827 267.859 387.995C270.908 387.441 271.137 381.057 271.139 380.994C271.148 380.779 271.305 380.604 271.517 380.579C271.719 380.547 271.925 380.683 271.983 380.887C272.063 381.164 272.147 381.525 272.241 381.941C272.594 383.487 273.129 385.826 274.244 386.802C275.641 388.024 278.852 388.169 280.505 387.437C282.222 386.765 283.055 384.36 282.991 382.178C282.946 381.865 282.917 381.541 282.903 381.213C282.896 380.986 283.066 380.79 283.294 380.77C283.511 380.749 283.725 380.906 283.761 381.13C283.81 381.445 283.838 381.767 283.852 382.095C284.208 384.435 285.585 386.39 287.328 386.913C288.715 387.327 290.061 386.736 291.115 385.251C291.254 385.057 291.52 385.013 291.717 385.15C291.908 385.288 291.954 385.556 291.816 385.75C290.546 387.533 288.821 388.259 287.082 387.734C285.6 387.292 284.368 386.056 283.632 384.414C283.233 386.141 282.301 387.659 280.838 388.231C278.926 389.08 275.372 388.928 273.68 387.449C272.673 386.568 272.1 384.917 271.718 383.447C271.314 385.587 270.343 388.419 268.015 388.842C267.512 388.933 267.048 388.974 266.619 388.974Z" fill="#5B5B62"/>
<path d="M275.802 375.857C272.847 375.854 262.803 375.989 261.697 378.253C260.225 381.437 276.565 381.187 279.722 381.082C294.682 380.591 296.466 375.107 275.802 375.857Z" fill="#8E91B1"/>
<path d="M275.801 375.285C274.09 375.287 259.755 375.038 261.06 378.918C261.698 380.813 264.734 380.982 266.343 381.208C269.891 381.702 273.516 381.723 277.093 381.705C280.262 381.689 283.425 381.523 286.551 380.964C287.947 380.715 290.98 380.234 291.6 378.608C293.196 374.41 276.934 375.249 275.801 375.285C275.062 375.307 275.06 376.454 275.801 376.431C279.067 376.332 282.324 376.327 285.58 376.64C286.153 376.697 291.842 377.455 289.976 378.674C286.534 380.919 281.04 380.521 277.093 380.559C272.695 380.599 267.996 380.679 263.719 379.536C261.654 378.982 263.051 377.787 264.422 377.39C265.86 376.973 267.399 376.843 268.884 376.701C271.177 376.478 273.496 376.436 275.801 376.431C276.541 376.43 276.541 375.284 275.801 375.285Z" fill="#5B5B62"/>
<path d="M291.323 344.185C291.135 355.493 290.73 366.803 290.58 378.108C290.572 378.662 291.434 378.662 291.439 378.108C291.591 366.803 291.996 355.493 292.181 344.185C292.192 343.631 291.33 343.631 291.323 344.185Z" fill="#727595"/>
<path d="M259.569 343.992C259.916 355.442 260.067 366.851 261.267 378.255C261.325 378.799 262.186 378.803 262.127 378.255C260.927 366.852 260.774 355.442 260.428 343.992C260.411 343.438 259.55 343.437 259.569 343.992Z" fill="#727595"/>
<path d="M275.062 345.907C276.027 357.45 274.818 369.029 275.826 380.566C275.876 381.114 276.735 381.12 276.689 380.566C275.68 369.029 276.886 357.45 275.924 345.907C275.878 345.359 275.017 345.354 275.062 345.907Z" fill="#727595"/>
<path d="M335.61 245.673C332.004 236.525 325.353 227.41 314.943 225.53C314.864 225.517 314.791 225.515 314.718 225.511C314.659 225.501 314.61 225.484 314.549 225.478C306.777 224.689 302.254 232.434 299.524 238.369C294.592 249.09 292.429 261.094 290.497 272.62C286.7 295.29 282.777 320.129 289.424 342.599C289.787 343.836 291.445 344.001 292.131 342.946C299.24 332.019 313.911 328.274 323.288 319.554C333.088 310.443 338.067 297.125 339.661 284.239C341.287 271.1 340.511 258.098 335.61 245.673Z" fill="#EB9065"/>
<path d="M258.229 282.342C254.777 263.691 246.631 245.046 237.228 228.517C236.9 227.943 236.371 227.756 235.863 227.824C235.651 227.83 235.429 227.881 235.203 227.999C225.753 232.859 220.672 242.174 217.49 251.787C214.073 262.106 212.284 274.685 213.872 285.488C215.925 299.47 223.826 311.813 234.228 321.369C242.752 329.205 253.362 334.283 260.973 343.24C261.823 344.239 263.511 343.399 263.499 342.215C263.301 322.243 261.866 301.999 258.229 282.342Z" fill="#F3F4F6"/>
<path d="M303.181 214.719C294.831 210.163 285.075 209.392 275.846 211.216C275.275 211.327 274.955 211.669 274.832 212.073C269.254 220.033 268.436 231.165 267.617 240.47C266.33 255.11 266.678 269.902 267.329 284.563C268.206 304.328 269.868 324.129 272.387 343.761C272.487 344.544 272.984 345.209 273.867 345.209C279.529 345.209 285.191 345.209 290.852 345.209C291.357 345.209 291.888 344.938 292.131 344.492C307.814 315.692 312.205 281.05 314.829 248.938C315.429 241.623 315.909 234.27 316.03 226.928C316.113 222.082 306.715 216.648 303.181 214.719Z" fill="#F3F4F6"/>
<path d="M279.657 216.896C276.998 201.57 249.935 213.797 242.774 219.037C236.154 223.88 234.359 228.462 233.934 235.861C233.229 248.186 233.889 260.589 235.458 272.827C237.61 289.64 241.872 306.368 248.706 321.958C250.788 326.706 253.067 331.346 255.561 335.901C256.69 337.957 259.186 344.505 261.624 345.159C265.21 346.126 270.142 345.21 273.866 345.21C274.608 345.21 275.058 344.774 275.224 344.237C275.284 344.094 275.331 343.939 275.347 343.761C277.683 315.811 279.535 287.788 280.495 259.759C280.977 245.699 282.078 230.848 279.657 216.896Z" fill="#EB9065"/>
<path d="M259.181 345.856C270.141 347.898 281.707 347.764 292.658 345.856C295.792 345.313 294.461 341.12 291.343 341.663C281.318 343.407 270.54 343.53 260.498 341.663C257.38 341.081 256.056 345.277 259.181 345.856Z" fill="#727595"/>
<path d="M158.048 73.2231C158.046 73.1611 158.027 73.1121 158 73.0701C157.954 72.9791 157.869 72.9111 157.737 72.9121C153.705 72.9771 149.673 73.0421 145.639 73.1081C145.476 73.1111 145.323 73.2471 145.328 73.4191C145.427 75.7501 145.227 78.1511 145.613 80.4621C145.972 82.6151 148.333 82.7791 150.156 82.8851C152.494 83.0201 155.832 83.1041 157.176 81.8651C158.733 80.4311 158.13 75.5061 158.048 73.2231Z" fill="#727595"/>
<path d="M147.435 77.7765C145.603 77.7765 145.186 76.0535 145.181 76.0345C145.158 75.9345 145.22 75.8355 145.321 75.8115C145.424 75.7905 145.52 75.8515 145.543 75.9505C145.563 76.0225 145.986 77.7135 147.97 77.3525C149.292 77.1135 149.392 74.3475 149.393 74.3195C149.396 74.2265 149.464 74.1505 149.556 74.1405C149.644 74.1275 149.733 74.1845 149.759 74.2735C149.792 74.3925 149.829 74.5505 149.869 74.7305C150.02 75.4005 150.253 76.4145 150.736 76.8375C151.342 77.3665 152.734 77.4295 153.448 77.1115C154.192 76.8205 154.553 75.7785 154.526 74.8335C154.506 74.6965 154.496 74.5565 154.487 74.4155C154.484 74.3165 154.559 74.2315 154.658 74.2235C154.752 74.2145 154.846 74.2825 154.86 74.3805C154.88 74.5165 154.893 74.6555 154.897 74.7975C155.053 75.8125 155.649 76.6575 156.406 76.8835C157.006 77.0645 157.589 76.8085 158.046 76.1645C158.107 76.0815 158.222 76.0615 158.308 76.1215C158.39 76.1805 158.41 76.2975 158.35 76.3815C157.8 77.1535 157.052 77.4675 156.3 77.2415C155.656 77.0495 155.123 76.5135 154.805 75.8025C154.631 76.5515 154.227 77.2085 153.593 77.4565C152.765 77.8245 151.225 77.7585 150.491 77.1175C150.055 76.7365 149.808 76.0205 149.643 75.3835C149.465 76.3095 149.045 77.5365 148.038 77.7205C147.82 77.7595 147.619 77.7765 147.435 77.7765Z" fill="#5B5B62"/>
<path d="M151.41 72.0953C150.128 72.0943 145.778 72.1523 145.3 73.1333C144.661 74.5123 151.742 74.4043 153.11 74.3583C159.59 74.1463 160.361 71.7683 151.41 72.0953Z" fill="#8E91B1"/>
<path d="M151.412 71.8467C150.67 71.8477 144.46 71.7397 145.025 73.4207C145.302 74.2427 146.617 74.3147 147.314 74.4117C148.852 74.6267 150.423 74.6357 151.971 74.6277C153.343 74.6207 154.715 74.5477 156.069 74.3057C156.675 74.1977 157.987 73.9887 158.256 73.2857C158.947 71.4667 151.904 71.8307 151.412 71.8467C151.093 71.8567 151.09 72.3537 151.412 72.3437C152.826 72.3007 154.237 72.2977 155.648 72.4327C155.896 72.4577 158.361 72.7867 157.553 73.3147C156.062 74.2877 153.68 74.1137 151.971 74.1307C150.065 74.1487 148.031 74.1837 146.177 73.6877C145.282 73.4467 145.888 72.9297 146.482 72.7577C147.106 72.5767 147.772 72.5207 148.415 72.4597C149.409 72.3637 150.413 72.3447 151.412 72.3437C151.733 72.3427 151.733 71.8447 151.412 71.8467Z" fill="#5B5B62"/>
<path d="M158.135 58.3734C158.053 63.2714 157.878 68.1724 157.813 73.0694C157.809 73.3094 158.182 73.3094 158.184 73.0694C158.252 68.1724 158.425 63.2714 158.509 58.3734C158.512 58.1334 158.138 58.1334 158.135 58.3734Z" fill="#727595"/>
<path d="M144.377 58.2886C144.528 63.2486 144.594 68.1916 145.114 73.1316C145.138 73.3676 145.51 73.3686 145.486 73.1316C144.966 68.1916 144.903 63.2486 144.751 58.2886C144.743 58.0496 144.37 58.0496 144.377 58.2886Z" fill="#727595"/>
<path d="M151.093 59.1191C151.508 64.1191 150.987 69.1371 151.423 74.1351C151.446 74.3711 151.817 74.3741 151.797 74.1351C151.36 69.1361 151.883 64.1191 151.466 59.1191C151.445 58.8811 151.074 58.8781 151.093 59.1191Z" fill="#727595"/>
<path d="M177.323 15.696C175.76 11.732 172.88 7.78302 168.368 6.97002C168.335 6.96502 168.304 6.96402 168.271 6.96302C168.246 6.95802 168.223 6.95002 168.198 6.94802C164.832 6.60602 162.872 9.96102 161.688 12.533C159.554 17.178 158.615 22.378 157.777 27.372C156.132 37.192 154.433 47.954 157.313 57.689C157.47 58.223 158.188 58.295 158.485 57.838C161.566 53.104 167.921 51.482 171.984 47.704C176.23 43.757 178.387 37.987 179.079 32.404C179.78 26.711 179.445 21.078 177.323 15.696Z" fill="#FA8A5B"/>
<path d="M143.798 31.5819C142.303 23.5009 138.774 15.4239 134.699 8.26393C134.558 8.01493 134.328 7.93293 134.109 7.96293C134.016 7.96493 133.92 7.98693 133.823 8.03793C129.728 10.1439 127.527 14.1799 126.148 18.3439C124.668 22.8149 123.894 28.2639 124.582 32.9439C125.471 39.0009 128.894 44.3479 133.402 48.4879C137.092 51.8829 141.689 54.0829 144.986 57.9639C145.354 58.3979 146.088 58.0339 146.083 57.5189C145.995 48.8689 145.372 40.0989 143.798 31.5819Z" fill="#F3F4F6"/>
<path d="M163.273 2.28352C159.655 0.309525 155.428 -0.0244767 151.43 0.765523C151.182 0.813523 151.042 0.962525 150.99 1.13753C148.573 4.58552 148.22 9.40853 147.865 13.4395C147.308 19.7815 147.459 26.1895 147.741 32.5425C148.12 41.1055 148.84 49.6835 149.932 58.1885C149.975 58.5275 150.19 58.8165 150.574 58.8165C153.027 58.8165 155.479 58.8165 157.932 58.8165C158.151 58.8165 158.38 58.6985 158.486 58.5055C165.28 46.0275 167.183 31.0205 168.32 17.1085C168.58 13.9385 168.788 10.7535 168.84 7.57353C168.874 5.47353 164.803 3.11852 163.273 2.28352Z" fill="#F3F4F6"/>
<path d="M153.081 3.2273C151.929 -3.4117 140.204 1.8863 137.102 4.1553C134.234 6.2533 133.455 8.2383 133.273 11.4453C132.967 16.7843 133.251 22.1583 133.932 27.4593C134.865 34.7423 136.711 41.9903 139.672 48.7433C140.573 50.8013 141.56 52.8103 142.642 54.7843C143.129 55.6763 144.211 58.5113 145.266 58.7953C146.823 59.2153 148.958 58.8183 150.572 58.8183C150.893 58.8183 151.088 58.6283 151.16 58.3963C151.186 58.3343 151.209 58.2663 151.214 58.1903C152.226 46.0813 153.027 33.9413 153.444 21.7983C153.652 15.7063 154.129 9.2723 153.081 3.2273Z" fill="#FA8A5B"/>
<path d="M144.21 59.0987C148.958 59.9837 153.968 59.9257 158.712 59.0987C160.07 58.8637 159.494 57.0467 158.144 57.2817C153.8 58.0367 149.133 58.0907 144.781 57.2817C143.431 57.0297 142.856 58.8477 144.21 59.0987Z" fill="#727595"/>
<path d="M146.27 191.838V179.558H150.419C151.383 179.558 152.17 179.732 152.782 180.08C153.397 180.423 153.853 180.889 154.149 181.477C154.445 182.064 154.593 182.72 154.593 183.443C154.593 184.167 154.445 184.825 154.149 185.416C153.857 186.008 153.405 186.479 152.794 186.831C152.182 187.179 151.399 187.353 150.443 187.353H147.469V186.034H150.395C151.055 186.034 151.585 185.92 151.984 185.692C152.384 185.464 152.674 185.156 152.854 184.769C153.038 184.377 153.13 183.935 153.13 183.443C153.13 182.952 153.038 182.512 152.854 182.124C152.674 181.737 152.382 181.433 151.978 181.213C151.575 180.989 151.039 180.877 150.371 180.877H147.757V191.838H146.27ZM156.239 191.838H154.68L159.189 179.558H160.724L165.233 191.838H163.674L160.004 181.501H159.908L156.239 191.838ZM156.814 187.041H163.098V188.36H156.814V187.041ZM174.963 183.395C174.831 182.992 174.657 182.63 174.441 182.31C174.229 181.986 173.975 181.711 173.68 181.483C173.388 181.255 173.056 181.081 172.684 180.961C172.312 180.841 171.905 180.781 171.461 180.781C170.733 180.781 170.072 180.969 169.476 181.345C168.881 181.721 168.407 182.274 168.055 183.006C167.703 183.737 167.528 184.635 167.528 185.698C167.528 186.761 167.705 187.659 168.061 188.39C168.417 189.122 168.899 189.675 169.506 190.051C170.114 190.427 170.797 190.615 171.557 190.615C172.26 190.615 172.88 190.465 173.416 190.165C173.955 189.861 174.375 189.433 174.675 188.882C174.979 188.326 175.131 187.673 175.131 186.921L175.586 187.017H171.893V185.698H176.57V187.017C176.57 188.028 176.354 188.908 175.922 189.655C175.494 190.403 174.903 190.982 174.147 191.394C173.396 191.802 172.532 192.006 171.557 192.006C170.47 192.006 169.514 191.75 168.691 191.238C167.871 190.727 167.232 189.999 166.772 189.056C166.316 188.112 166.089 186.993 166.089 185.698C166.089 184.727 166.218 183.853 166.478 183.078C166.742 182.298 167.114 181.635 167.594 181.087C168.073 180.539 168.641 180.12 169.296 179.828C169.952 179.536 170.674 179.39 171.461 179.39C172.109 179.39 172.712 179.488 173.272 179.684C173.835 179.876 174.337 180.15 174.777 180.505C175.221 180.857 175.59 181.279 175.886 181.771C176.182 182.258 176.386 182.8 176.498 183.395H174.963ZM179.116 191.838V179.558H186.528V180.877H180.603V185.026H186.144V186.346H180.603V190.519H186.623V191.838H179.116ZM203.694 179.558V191.838H202.255L195.564 182.196H195.444V191.838H193.957V179.558H195.396L202.111 189.224H202.231V179.558H203.694ZM217.031 185.698C217.031 186.993 216.797 188.112 216.329 189.056C215.862 189.999 215.22 190.727 214.405 191.238C213.589 191.75 212.658 192.006 211.61 192.006C210.563 192.006 209.632 191.75 208.816 191.238C208.001 190.727 207.359 189.999 206.892 189.056C206.424 188.112 206.19 186.993 206.19 185.698C206.19 184.403 206.424 183.284 206.892 182.34C207.359 181.397 208.001 180.669 208.816 180.158C209.632 179.646 210.563 179.39 211.61 179.39C212.658 179.39 213.589 179.646 214.405 180.158C215.22 180.669 215.862 181.397 216.329 182.34C216.797 183.284 217.031 184.403 217.031 185.698ZM215.592 185.698C215.592 184.635 215.414 183.737 215.058 183.006C214.706 182.274 214.229 181.721 213.625 181.345C213.025 180.969 212.354 180.781 211.61 180.781C210.867 180.781 210.193 180.969 209.59 181.345C208.99 181.721 208.512 182.274 208.157 183.006C207.805 183.737 207.629 184.635 207.629 185.698C207.629 186.761 207.805 187.659 208.157 188.39C208.512 189.122 208.99 189.675 209.59 190.051C210.193 190.427 210.867 190.615 211.61 190.615C212.354 190.615 213.025 190.427 213.625 190.051C214.229 189.675 214.706 189.122 215.058 188.39C215.414 187.659 215.592 186.761 215.592 185.698ZM218.348 180.877V179.558H227.558V180.877H223.697V191.838H222.21V180.877H218.348ZM234.602 191.838V179.558H241.965V180.877H236.089V185.026H241.414V186.346H236.089V191.838H234.602ZM254.873 185.698C254.873 186.993 254.639 188.112 254.172 189.056C253.704 189.999 253.062 190.727 252.247 191.238C251.431 191.75 250.5 192.006 249.453 192.006C248.405 192.006 247.474 191.75 246.659 191.238C245.843 190.727 245.202 189.999 244.734 189.056C244.266 188.112 244.032 186.993 244.032 185.698C244.032 184.403 244.266 183.284 244.734 182.34C245.202 181.397 245.843 180.669 246.659 180.158C247.474 179.646 248.405 179.39 249.453 179.39C250.5 179.39 251.431 179.646 252.247 180.158C253.062 180.669 253.704 181.397 254.172 182.34C254.639 183.284 254.873 184.403 254.873 185.698ZM253.434 185.698C253.434 184.635 253.256 183.737 252.9 183.006C252.549 182.274 252.071 181.721 251.467 181.345C250.868 180.969 250.196 180.781 249.453 180.781C248.709 180.781 248.036 180.969 247.432 181.345C246.833 181.721 246.355 182.274 245.999 183.006C245.647 183.737 245.471 184.635 245.471 185.698C245.471 186.761 245.647 187.659 245.999 188.39C246.355 189.122 246.833 189.675 247.432 190.051C248.036 190.427 248.709 190.615 249.453 190.615C250.196 190.615 250.868 190.427 251.467 190.051C252.071 189.675 252.549 189.122 252.9 188.39C253.256 187.659 253.434 186.761 253.434 185.698ZM265.432 179.558H266.919V187.689C266.919 188.528 266.721 189.278 266.326 189.937C265.934 190.593 265.38 191.11 264.665 191.49C263.949 191.866 263.11 192.054 262.146 192.054C261.183 192.054 260.344 191.866 259.628 191.49C258.912 191.11 258.357 190.593 257.961 189.937C257.569 189.278 257.374 188.528 257.374 187.689V179.558H258.861V187.569C258.861 188.168 258.992 188.702 259.256 189.17C259.52 189.633 259.896 189.999 260.384 190.267C260.875 190.531 261.463 190.663 262.146 190.663C262.83 190.663 263.418 190.531 263.909 190.267C264.401 189.999 264.777 189.633 265.036 189.17C265.3 188.702 265.432 188.168 265.432 187.569V179.558ZM279.626 179.558V191.838H278.187L271.496 182.196H271.376V191.838H269.889V179.558H271.328L278.043 189.224H278.163V179.558H279.626ZM286.391 191.838H282.602V179.558H286.559C287.75 179.558 288.77 179.804 289.617 180.296C290.465 180.783 291.114 181.485 291.566 182.4C292.018 183.312 292.243 184.403 292.243 185.674C292.243 186.953 292.016 188.054 291.56 188.978C291.104 189.897 290.441 190.605 289.569 191.1C288.698 191.592 287.638 191.838 286.391 191.838ZM284.089 190.519H286.295C287.311 190.519 288.152 190.323 288.82 189.931C289.487 189.539 289.985 188.982 290.313 188.258C290.64 187.535 290.804 186.673 290.804 185.674C290.804 184.683 290.642 183.829 290.319 183.114C289.995 182.394 289.511 181.843 288.868 181.459C288.224 181.071 287.423 180.877 286.463 180.877H284.089V190.519Z" fill="white"/>
<path d="M158.408 153.437V146.53L188.882 98.313H193.894V109.013H190.508L167.483 145.446V145.988H208.521V153.437H158.408ZM191.049 167.658V151.338V148.121V98.313H199.04V167.658H191.049ZM243.829 168.606C238.727 168.606 234.382 167.218 230.793 164.442C227.203 161.642 224.461 157.591 222.565 152.286C220.668 146.958 219.72 140.525 219.72 132.986C219.72 125.491 220.668 119.092 222.565 113.787C224.483 108.46 227.237 104.397 230.826 101.597C234.438 98.7758 238.772 97.365 243.829 97.365C248.885 97.365 253.208 98.7758 256.797 101.597C260.409 104.397 263.163 108.46 265.059 113.787C266.978 119.092 267.937 125.491 267.937 132.986C267.937 140.525 266.989 146.958 265.093 152.286C263.197 157.591 260.454 161.642 256.865 164.442C253.276 167.218 248.93 168.606 243.829 168.606ZM243.829 161.157C248.885 161.157 252.813 158.719 255.612 153.843C258.411 148.968 259.811 142.015 259.811 132.986C259.811 126.981 259.167 121.868 257.881 117.647C256.616 113.426 254.788 110.209 252.395 107.997C250.025 105.785 247.17 104.679 243.829 104.679C238.817 104.679 234.901 107.15 232.079 112.094C229.258 117.015 227.847 123.979 227.847 132.986C227.847 138.99 228.479 144.092 229.743 148.29C231.007 152.489 232.824 155.683 235.194 157.873C237.587 160.062 240.465 161.157 243.829 161.157ZM279.178 153.437V146.53L309.652 98.313H314.664V109.013H311.278L288.253 145.446V145.988H329.291V153.437H279.178ZM311.819 167.658V151.338V148.121V98.313H319.81V167.658H311.819Z" fill="white"/>
<path d="M209.74 80.7913C209.74 82.8483 209.368 84.6259 208.625 86.1242C207.883 87.6225 206.864 88.778 205.568 89.5907C204.273 90.4033 202.794 90.8096 201.131 90.8096C199.467 90.8096 197.988 90.4033 196.693 89.5907C195.398 88.778 194.379 87.6225 193.636 86.1242C192.893 84.6259 192.522 82.8483 192.522 80.7913C192.522 78.7343 192.893 76.9567 193.636 75.4583C194.379 73.96 195.398 72.8046 196.693 71.9919C197.988 71.1793 199.467 70.773 201.131 70.773C202.794 70.773 204.273 71.1793 205.568 71.9919C206.864 72.8046 207.883 73.96 208.625 75.4583C209.368 76.9567 209.74 78.7343 209.74 80.7913ZM207.454 80.7913C207.454 79.1025 207.171 77.6772 206.606 76.5154C206.048 75.3536 205.289 74.4743 204.33 73.8775C203.378 73.2807 202.312 72.9823 201.131 72.9823C199.95 72.9823 198.88 73.2807 197.921 73.8775C196.969 74.4743 196.21 75.3536 195.645 76.5154C195.087 77.6772 194.807 79.1025 194.807 80.7913C194.807 82.4801 195.087 83.9054 195.645 85.0672C196.21 86.229 196.969 87.1083 197.921 87.7051C198.88 88.3019 199.95 88.6003 201.131 88.6003C202.312 88.6003 203.378 88.3019 204.33 87.7051C205.289 87.1083 206.048 86.229 206.606 85.0672C207.171 83.9054 207.454 82.4801 207.454 80.7913ZM219.348 90.8477C218.028 90.8477 216.869 90.5334 215.872 89.9049C214.882 89.2764 214.107 88.3971 213.549 87.267C212.996 86.1369 212.72 84.8164 212.72 83.3054C212.72 81.7817 212.996 80.4516 213.549 79.3152C214.107 78.1788 214.882 77.2963 215.872 76.6678C216.869 76.0393 218.028 75.725 219.348 75.725C220.669 75.725 221.824 76.0393 222.815 76.6678C223.812 77.2963 224.586 78.1788 225.138 79.3152C225.697 80.4516 225.976 81.7817 225.976 83.3054C225.976 84.8164 225.697 86.1369 225.138 87.267C224.586 88.3971 223.812 89.2764 222.815 89.9049C221.824 90.5334 220.669 90.8477 219.348 90.8477ZM219.348 88.8288C220.351 88.8288 221.177 88.5717 221.824 88.0574C222.472 87.5432 222.951 86.867 223.262 86.029C223.573 85.191 223.729 84.2831 223.729 83.3054C223.729 82.3277 223.573 81.4166 223.262 80.5723C222.951 79.7279 222.472 79.0454 221.824 78.5248C221.177 78.0042 220.351 77.7439 219.348 77.7439C218.345 77.7439 217.52 78.0042 216.872 78.5248C216.225 79.0454 215.745 79.7279 215.434 80.5723C215.123 81.4166 214.968 82.3277 214.968 83.3054C214.968 84.2831 215.123 85.191 215.434 86.029C215.745 86.867 216.225 87.5432 216.872 88.0574C217.52 88.5717 218.345 88.8288 219.348 88.8288ZM229.407 96.0283V75.9155H231.578V78.2391H231.845C232.01 77.9851 232.239 77.6614 232.531 77.2677C232.829 76.8678 233.255 76.5122 233.807 76.2012C234.366 75.8837 235.121 75.725 236.073 75.725C237.305 75.725 238.391 76.0329 239.33 76.6487C240.27 77.2646 241.003 78.1375 241.53 79.2676C242.057 80.3977 242.321 81.7309 242.321 83.2673C242.321 84.8164 242.057 86.1592 241.53 87.2956C241.003 88.4257 240.273 89.3018 239.34 89.924C238.407 90.5398 237.33 90.8477 236.111 90.8477C235.172 90.8477 234.42 90.6922 233.854 90.3811C233.289 90.0636 232.855 89.7049 232.55 89.305C232.245 88.8986 232.01 88.5622 231.845 88.2955H231.655V96.0283H229.407ZM231.617 83.2292C231.617 84.3339 231.778 85.3084 232.102 86.1528C232.426 86.9908 232.899 87.6479 233.521 88.1241C234.143 88.5939 234.905 88.8288 235.807 88.8288C236.746 88.8288 237.53 88.5812 238.159 88.086C238.794 87.5845 239.27 86.9115 239.587 86.0671C239.911 85.2164 240.073 84.2704 240.073 83.2292C240.073 82.2007 239.914 81.2738 239.597 80.4485C239.286 79.6168 238.813 78.9597 238.178 78.4772C237.549 77.9883 236.759 77.7439 235.807 77.7439C234.892 77.7439 234.124 77.9756 233.502 78.4391C232.88 78.8962 232.41 79.5374 232.093 80.3628C231.775 81.1817 231.617 82.1372 231.617 83.2292ZM256.11 79.1914L254.091 79.7628C253.964 79.4263 253.777 79.0994 253.529 78.7819C253.288 78.4581 252.958 78.1915 252.539 77.982C252.12 77.7725 251.583 77.6677 250.929 77.6677C250.034 77.6677 249.288 77.874 248.691 78.2867C248.101 78.693 247.806 79.2105 247.806 79.839C247.806 80.3977 248.009 80.8389 248.415 81.1627C248.822 81.4865 249.457 81.7563 250.32 81.9722L252.491 82.5055C253.799 82.8229 254.774 83.3086 255.415 83.9625C256.056 84.6101 256.377 85.4449 256.377 86.4671C256.377 87.3051 256.135 88.0543 255.653 88.7145C255.177 89.3748 254.51 89.8954 253.653 90.2763C252.796 90.6572 251.799 90.8477 250.663 90.8477C249.171 90.8477 247.936 90.5239 246.958 89.8764C245.981 89.2288 245.362 88.2828 245.101 87.0385L247.234 86.5052C247.438 87.2924 247.822 87.8828 248.387 88.2765C248.958 88.6701 249.704 88.8669 250.625 88.8669C251.672 88.8669 252.504 88.6447 253.12 88.2003C253.742 87.7495 254.053 87.2099 254.053 86.5814C254.053 86.0735 253.875 85.6481 253.52 85.3053C253.164 84.9561 252.618 84.6958 251.882 84.5244L249.444 83.953C248.104 83.6355 247.12 83.1435 246.492 82.4769C245.869 81.8039 245.558 80.9627 245.558 79.9533C245.558 79.1279 245.79 78.3978 246.254 77.7629C246.723 77.1281 247.361 76.6297 248.168 76.2678C248.98 75.9059 249.901 75.725 250.929 75.725C252.377 75.725 253.513 76.0424 254.339 76.6773C255.17 77.3122 255.761 78.1502 256.11 79.1914ZM262.731 71.0396L262.54 85.0577H260.331L260.141 71.0396H262.731ZM261.436 90.6953C260.966 90.6953 260.563 90.5271 260.226 90.1906C259.89 89.8541 259.722 89.451 259.722 88.9812C259.722 88.5114 259.89 88.1082 260.226 87.7717C260.563 87.4353 260.966 87.267 261.436 87.267C261.906 87.267 262.309 87.4353 262.645 87.7717C262.982 88.1082 263.15 88.5114 263.15 88.9812C263.15 89.2923 263.071 89.578 262.912 89.8383C262.76 90.0986 262.553 90.3081 262.293 90.4668C262.039 90.6192 261.753 90.6953 261.436 90.6953Z" fill="white"/>
</svg>
