<svg width="32" height="32" viewBox="0 0 32 32" fill="none" xmlns="http://www.w3.org/2000/svg">
<g clip-path="url(#clip0_4849_1003)">
<path d="M19.5527 11.2922C19.1727 10.5965 18.629 10.0586 17.9216 9.6903C17.2142 9.32199 16.384 9.13491 15.4253 9.13491C13.7708 9.13491 12.4437 9.67861 11.4498 10.766C10.4559 11.8534 9.95317 13.3033 9.95317 15.1156C9.95317 16.928 10.4735 18.5591 11.52 19.6465C12.5664 20.7339 14.0046 21.2776 15.8403 21.2776C17.6761 21.2776 18.1555 20.956 19.0266 20.3188C19.8918 19.6815 20.529 18.7637 20.9266 17.5652H14.4372V13.8002H25.5627V18.5532C25.1827 19.8277 24.5396 21.0145 23.6334 22.1136C22.7272 23.2127 21.5755 24.0955 20.1783 24.7736C18.781 25.4518 17.2084 25.7909 15.4545 25.7909C13.7006 25.7909 11.5317 25.3349 9.9064 24.4287C8.28114 23.5225 7.01835 22.2597 6.10633 20.6462C5.20016 19.0326 4.75 17.191 4.75 15.1156C4.75 13.0402 5.20016 11.1928 6.11218 9.56753C7.01835 7.94227 8.28114 6.67948 9.8947 5.76746C11.5083 4.86714 13.3498 4.41113 15.4253 4.41113C17.5007 4.41113 20.0555 5.01914 21.7801 6.23516C23.5048 7.45118 24.6448 9.13491 25.206 11.2922H19.5527Z" fill="#727597"/>
<path d="M19.5936 11.3273C19.2136 10.6316 18.6699 10.0938 17.9625 9.72547C17.2551 9.35715 16.4249 9.17007 15.4662 9.17007C13.8117 9.17007 12.4846 9.71378 11.4907 10.8012C10.4968 11.8886 9.99406 13.3385 9.99406 15.1508C9.99406 16.9631 10.5144 18.5942 11.5609 19.6816C12.6073 20.769 14.0455 21.3127 15.8812 21.3127C17.717 21.3127 18.1964 20.9912 19.0674 20.354C19.9327 19.7167 20.5699 18.7989 20.9675 17.6004H14.4781V13.8354H25.6036V18.5884C25.2235 19.8629 24.5805 21.0497 23.6743 22.1488C22.7681 23.2479 21.6164 24.1306 20.2192 24.8088C18.8219 25.487 17.2493 25.826 15.4954 25.826C13.7415 25.826 11.5725 25.37 9.94729 24.4639C8.32203 23.5577 7.05924 22.2949 6.14722 20.6813C5.2469 19.0736 4.79089 17.2262 4.79089 15.1566C4.79089 13.0871 5.24106 11.2338 6.15307 9.60854C7.05924 7.98329 8.32203 6.72049 9.9356 5.80848C11.5492 4.90231 13.3966 4.45215 15.4662 4.45215C17.5357 4.45215 20.0964 5.06016 21.821 6.27618C23.5457 7.4922 24.6857 9.17592 25.2469 11.3332H19.5936V11.3273Z" fill="#727597"/>
<path d="M19.6404 11.3683C19.2604 10.6726 18.7167 10.1348 18.0093 9.76647C17.3019 9.39816 16.4717 9.21108 15.5129 9.21108C13.8584 9.21108 12.5313 9.75478 11.5375 10.8422C10.5436 11.9296 10.0408 13.3795 10.0408 15.1918C10.0408 17.0041 10.5611 18.6352 11.6076 19.7226C12.6541 20.81 14.0923 21.3537 15.928 21.3537C17.7637 21.3537 18.2431 21.0322 19.1142 20.395C19.9794 19.7577 20.6167 18.8399 21.0142 17.6414H14.5249V13.8764H25.6503V18.6294C25.2703 19.9039 24.6272 21.0907 23.721 22.1898C22.8149 23.2889 21.6632 24.1716 20.2659 24.8498C18.8687 25.528 17.296 25.8671 15.5421 25.8671C13.7883 25.8671 11.6193 25.411 9.99404 24.5049C8.36878 23.5987 7.10599 22.3359 6.19398 20.7224C5.28781 19.1146 4.83765 17.2672 4.83765 15.1918C4.83765 13.1164 5.28781 11.269 6.19982 9.6437C7.10599 8.01844 8.36878 6.75565 9.98235 5.84364C11.5959 4.94331 13.4375 4.4873 15.5129 4.4873C17.5883 4.4873 20.1431 5.09532 21.8678 6.31134C23.5924 7.52736 24.7324 9.21108 25.2937 11.3683H19.6404Z" fill="#727597"/>
<path d="M19.6814 11.4089C19.3014 10.7132 18.7577 10.1753 18.0503 9.807C17.3429 9.43869 16.5127 9.2516 15.5539 9.2516C13.8994 9.2516 12.5723 9.79531 11.5785 10.8827C10.5846 11.9701 10.0818 13.42 10.0818 15.2323C10.0818 17.0447 10.6021 18.6758 11.6486 19.7632C12.6951 20.8506 14.1333 21.3943 15.969 21.3943C17.8047 21.3943 18.2841 21.0727 19.1552 20.4355C20.0204 19.7982 20.6577 18.8804 21.0552 17.6819H14.5659V13.9169H25.6913V18.6699C25.3113 19.9444 24.6682 21.1312 23.762 22.2303C22.8559 23.3294 21.7042 24.2122 20.3069 24.8903C18.9097 25.5685 17.337 25.9076 15.5831 25.9076C13.8293 25.9076 11.6603 25.4516 10.035 24.5454C8.40979 23.6392 7.147 22.3764 6.23498 20.7629C5.32881 19.1493 4.8728 17.3019 4.8728 15.2323C4.8728 13.1627 5.32296 11.3095 6.23498 9.68423C7.14115 8.05897 8.40394 6.79618 10.0175 5.88416C11.6369 4.98384 13.4785 4.52783 15.5539 4.52783C17.6293 4.52783 20.1841 5.13584 21.9088 6.35186C23.6334 7.56788 24.7734 9.2516 25.3347 11.4089H19.6814Z" fill="#727597"/>
<path d="M19.7223 11.444C19.3422 10.7483 18.7985 10.2105 18.0912 9.84217C17.3838 9.47385 16.5536 9.28677 15.5948 9.28677C13.9403 9.28677 12.6132 9.83048 11.6193 10.9179C10.6255 12.0053 10.1227 13.4552 10.1227 15.2675C10.1227 17.0798 10.643 18.7109 11.6895 19.7983C12.736 20.8857 14.1742 21.4294 16.0099 21.4294C17.8456 21.4294 18.325 21.1079 19.1961 20.4707C20.0613 19.8334 20.6986 18.9156 21.0961 17.7171H14.6068V13.9521H25.7322V18.7051C25.3522 19.9796 24.7091 21.1664 23.8029 22.2655C22.8968 23.3646 21.7451 24.2473 20.3478 24.9255C18.9506 25.6037 17.3779 25.9427 15.624 25.9427C13.8702 25.9427 11.7012 25.4867 10.0759 24.5806C8.45068 23.6744 7.18789 22.4116 6.27587 20.798C5.3697 19.1845 4.9137 17.3371 4.9137 15.2675C4.9137 13.1979 5.36386 11.3447 6.27587 9.7194C7.18204 8.09414 8.44483 6.83135 10.0584 5.91933C11.6778 5.01901 13.5252 4.56885 15.6006 4.56885C17.6761 4.56885 20.2309 5.17686 21.9555 6.39288C23.6802 7.6089 24.8202 9.29262 25.3814 11.4499H19.7281L19.7223 11.444Z" fill="#727597"/>
<path d="M19.769 11.485C19.389 10.7893 18.8453 10.2515 18.1379 9.88317C17.4305 9.51486 16.6004 9.32778 15.6416 9.32778C13.9871 9.32778 12.66 9.87148 11.6661 10.9589C10.6723 12.0463 10.1695 13.4962 10.1695 15.3085C10.1695 17.1208 10.6898 18.7519 11.7363 19.8393C12.7827 20.9267 14.2209 21.4704 16.0567 21.4704C17.8924 21.4704 18.3718 21.1489 19.2429 20.5117C20.1081 19.8744 20.7453 18.9566 21.1429 17.7581H14.6536V13.9931H25.779V18.7461C25.399 20.0206 24.7559 21.2074 23.8497 22.3065C22.9435 23.4056 21.7918 24.2883 20.3946 24.9665C18.9973 25.6447 17.4247 25.9838 15.6708 25.9838C13.9169 25.9838 11.748 25.5277 10.1227 24.6216C8.49745 23.7154 7.23465 22.4526 6.32264 20.8391C5.41062 19.2255 4.96631 17.3839 4.96631 15.3085C4.96631 13.2331 5.41647 11.3857 6.32849 9.7604C7.23465 8.13514 8.49745 6.87235 10.111 5.96033C11.7246 5.06001 13.5661 4.604 15.6416 4.604C17.717 4.604 20.2718 5.21201 21.9964 6.42804C23.7211 7.64406 24.8611 9.32778 25.4223 11.485H19.769Z" fill="#727597"/>
<path d="M19.8099 11.526C19.4299 10.8303 18.8862 10.2925 18.1788 9.92417C17.4714 9.55586 16.6412 9.36878 15.6824 9.36878C14.028 9.36878 12.7009 9.91248 11.707 10.9999C10.7131 12.0873 10.2104 13.5372 10.2104 15.3495C10.2104 17.1618 10.7307 18.7929 11.7772 19.8803C12.8236 20.9677 14.2618 21.5114 16.0975 21.5114C17.9333 21.5114 18.4126 21.1899 19.2837 20.5527C20.149 19.9154 20.7862 18.9976 21.1838 17.7991H14.6944V14.0341H25.8199V18.7871C25.4398 20.0616 24.7968 21.2484 23.8906 22.3475C22.9844 23.4466 21.8327 24.3293 20.4355 25.0075C19.0382 25.6857 17.4656 26.0248 15.7117 26.0248C13.9578 26.0248 11.7888 25.5687 10.1636 24.6626C8.53833 23.7564 7.27554 22.4936 6.36352 20.8801C5.45735 19.2665 5.00134 17.4191 5.00134 15.3495C5.00134 13.2799 5.4515 11.4267 6.36352 9.8014C7.26969 8.17614 8.53248 6.91335 10.146 6.00134C11.7596 5.09517 13.6012 4.63916 15.6766 4.63916C17.752 4.63916 20.3068 5.24717 22.0315 6.46319C23.7561 7.67921 24.8961 9.36293 25.4574 11.5202H19.8041L19.8099 11.526Z" fill="#727597"/>
<path d="M19.8568 11.5612C19.4768 10.8655 18.9331 10.3276 18.2257 9.95933C17.5183 9.59102 16.6881 9.40394 15.7293 9.40394C14.0748 9.40394 12.7477 9.94764 11.7539 11.035C10.76 12.1224 10.2572 13.5723 10.2572 15.3847C10.2572 17.197 10.7775 18.8281 11.824 19.9155C12.8705 21.0029 14.3087 21.5466 16.1444 21.5466C17.9801 21.5466 18.4595 21.2251 19.3306 20.5878C20.1959 19.9506 20.8331 19.0327 21.2306 17.8342H14.7413V14.0692H25.8667V18.8222C25.4867 20.0967 24.8436 21.2835 23.9375 22.3826C23.0313 23.4817 21.8796 24.3645 20.4823 25.0427C19.0851 25.7208 17.5124 26.0599 15.7586 26.0599C14.0047 26.0599 11.8357 25.6039 10.2105 24.6977C8.5852 23.7916 7.32241 22.5288 6.41039 20.9152C5.50423 19.3016 5.04822 17.4542 5.04822 15.3847C5.04822 13.3151 5.49838 11.4618 6.41039 9.83656C7.31656 8.2113 8.57935 6.94851 10.1929 6.03649C11.8065 5.13032 13.6481 4.67432 15.7235 4.67432C17.7989 4.67432 20.3537 5.28233 22.0784 6.49835C23.803 7.71437 24.943 9.39809 25.5043 11.5554H19.8509L19.8568 11.5612Z" fill="#727597"/>
<path d="M19.8977 11.6022C19.5177 10.9065 18.974 10.3687 18.2666 10.0003C17.5592 9.63203 16.729 9.44495 15.7702 9.44495C14.1157 9.44495 12.7886 9.98865 11.7948 11.0761C10.8009 12.1635 10.2981 13.6133 10.2981 15.4257C10.2981 17.238 10.8185 18.8691 11.8649 19.9565C12.9114 21.0439 14.3496 21.5876 16.1853 21.5876C18.021 21.5876 18.5004 21.2661 19.3715 20.6288C20.2368 19.9916 20.874 19.0737 21.2716 17.8752H14.7822V14.1103H25.9076V18.8633C25.5276 20.1377 24.8845 21.3245 23.9784 22.4236C23.0722 23.5227 21.9205 24.4055 20.5232 25.0837C19.126 25.7618 17.5533 26.1009 15.7995 26.1009C14.0456 26.1009 11.8766 25.6449 10.2514 24.7387C8.62611 23.8326 7.36332 22.5698 6.4513 20.9562C5.53929 19.3427 5.09497 17.5011 5.09497 15.4257C5.09497 13.3502 5.54513 11.5028 6.45715 9.87757C7.36332 8.25232 8.62611 6.98952 10.2397 6.07751C11.8532 5.17134 13.6948 4.71533 15.7702 4.71533C17.8456 4.71533 20.4005 5.32334 22.1251 6.53936C23.8498 7.75538 24.9898 9.4391 25.551 11.5964H19.8977V11.6022Z" fill="#727597"/>
<path d="M19.9386 11.6427C19.5586 10.947 19.0149 10.4092 18.3075 10.0409C17.6001 9.67256 16.7699 9.48548 15.8111 9.48548C14.1566 9.48548 12.8295 10.0292 11.8357 11.1166C10.8418 12.204 10.339 13.6539 10.339 15.4662C10.339 17.2785 10.8593 18.9096 11.9058 19.997C12.9523 21.0844 14.3905 21.6281 16.2262 21.6281C18.0619 21.6281 18.5413 21.3066 19.4124 20.6694C20.2776 20.0321 20.9149 19.1143 21.3124 17.9158H14.8231V14.1508H25.9485V18.9038C25.5685 20.1783 24.9254 21.3651 24.0193 22.4642C23.1131 23.5633 21.9614 24.446 20.5641 25.1242C19.1669 25.8024 17.5942 26.1415 15.8403 26.1415C14.0865 26.1415 11.9175 25.6854 10.2922 24.7793C8.66699 23.8731 7.4042 22.6103 6.49218 20.9968C5.58601 19.3832 5.13 17.5358 5.13 15.4662C5.13 13.3966 5.58017 11.5434 6.49218 9.9181C7.39835 8.29284 8.66114 7.03005 10.2747 6.11804C11.8883 5.21187 13.7298 4.75586 15.8053 4.75586C17.8807 4.75586 20.4355 5.36387 22.1601 6.57989C23.8848 7.79591 25.0248 9.47963 25.586 11.6369H19.9327L19.9386 11.6427Z" fill="#727597"/>
<path d="M19.9853 11.6779C19.6053 10.9822 19.0616 10.4443 18.3542 10.076C17.6468 9.70771 16.8166 9.52063 15.8579 9.52063C14.2034 9.52063 12.8763 10.0643 11.8824 11.1517C10.8885 12.2391 10.3858 13.689 10.3858 15.5014C10.3858 17.3137 10.9061 18.9448 11.9526 20.0322C12.999 21.1196 14.4372 21.6633 16.2729 21.6633C18.1087 21.6633 18.5881 21.3418 19.4592 20.7045C20.3244 20.0673 20.9616 19.1494 21.3592 17.9509H14.8698V14.1859H25.9953V18.9389C25.6153 20.2134 24.9722 21.4002 24.066 22.4993C23.1598 23.5984 22.0081 24.4812 20.6109 25.1594C19.2136 25.8375 17.641 26.1766 15.8871 26.1766C14.1332 26.1766 11.9643 25.7206 10.339 24.8144C8.71374 23.9083 7.45095 22.6455 6.53893 21.0319C5.63277 19.4183 5.17676 17.5709 5.17676 15.5014C5.17676 13.4318 5.62692 11.5785 6.53893 9.95326C7.4451 8.328 8.70789 7.06521 10.3215 6.15319C11.935 5.24702 13.7766 4.79102 15.852 4.79102C17.9274 4.79102 20.4823 5.39903 22.2069 6.61505C23.9315 7.83107 25.0716 9.51479 25.6328 11.6721H19.9795L19.9853 11.6779Z" fill="#727597"/>
<path d="M20.0262 11.7189C19.6462 11.0232 19.1025 10.4854 18.3951 10.117C17.6877 9.74873 16.8575 9.56165 15.8988 9.56165C14.2443 9.56165 12.9172 10.1054 11.9233 11.1928C10.9294 12.2802 10.4267 13.73 10.4267 15.5424C10.4267 17.3547 10.947 18.9858 11.9935 20.0732C13.0399 21.1606 14.4781 21.7043 16.3138 21.7043C18.1496 21.7043 18.629 21.3828 19.5 20.7455C20.3653 20.1083 21.0025 19.1904 21.4001 17.9919H14.9107V14.227H26.0362V18.98C25.6562 20.2544 25.0131 21.4412 24.1069 22.5403C23.2007 23.6394 22.049 24.5222 20.6518 25.2004C19.2545 25.8785 17.6819 26.2176 15.928 26.2176C14.1741 26.2176 12.0052 25.7616 10.3799 24.8554C8.75463 23.9493 7.49184 22.6865 6.57983 21.0729C5.67366 19.4594 5.21765 17.6119 5.21765 15.5424C5.21765 13.4728 5.66781 11.6195 6.57983 9.99427C7.486 8.36901 8.74879 7.10622 10.3624 6.19421C11.9759 5.28804 13.8175 4.83203 15.8929 4.83203C17.9683 4.83203 20.5231 5.44004 22.2478 6.65606C23.9724 7.87208 25.1125 9.5558 25.6737 11.7131H20.0204L20.0262 11.7189Z" fill="#727597"/>
<path d="M20.0672 11.7599C19.6872 11.0642 19.1435 10.5264 18.4361 10.1581C17.7287 9.78975 16.8986 9.60267 15.9398 9.60267C14.2853 9.60267 12.9582 10.1464 11.9643 11.2338C10.9705 12.3212 10.4677 13.771 10.4677 15.5834C10.4677 17.3957 10.988 19.0268 12.0345 20.1142C13.081 21.2016 14.5191 21.7453 16.3549 21.7453C18.1906 21.7453 18.67 21.4238 19.5411 20.7865C20.4063 20.1493 21.0435 19.2314 21.4411 18.033H14.9518V14.268H26.0772V19.021C25.6972 20.2955 25.0541 21.4823 24.1479 22.5813C23.2417 23.6804 22.09 24.5632 20.6928 25.2414C19.2955 25.9196 17.7229 26.2586 15.969 26.2586C14.2151 26.2586 12.0462 25.8026 10.4209 24.8965C8.79565 23.9903 7.53286 22.7275 6.62084 21.1139C5.70883 19.5004 5.25867 17.653 5.25867 15.5834C5.25867 13.5138 5.70883 11.6605 6.62084 10.0353C7.52701 8.41003 8.7898 7.14724 10.4034 6.23522C12.0169 5.32905 13.8585 4.87305 15.9339 4.87305C18.0093 4.87305 20.5642 5.48106 22.2888 6.69708C24.0134 7.9131 25.1535 9.59682 25.7147 11.7541H20.0614L20.0672 11.7599Z" fill="#727597"/>
<path d="M20.114 11.7951C19.734 11.0994 19.1903 10.5615 18.4829 10.1932C17.7755 9.8249 16.9453 9.63782 15.9865 9.63782C14.332 9.63782 13.0049 10.1815 12.0111 11.2689C11.0172 12.3563 10.5144 13.8062 10.5144 15.6185C10.5144 17.4309 11.0347 19.062 12.0812 20.1494C13.1277 21.2368 14.5659 21.7805 16.4016 21.7805C18.2373 21.7805 18.7167 21.4589 19.5878 20.8217C20.4531 20.1845 21.0903 19.2666 21.4878 18.0681H14.9985V14.3031H26.1239V19.0561C25.7439 20.3306 25.1008 21.5174 24.1947 22.6165C23.2885 23.7156 22.1368 24.5984 20.7395 25.2765C19.3423 25.9547 17.7696 26.2938 16.0158 26.2938C14.2619 26.2938 12.0929 25.8378 10.4677 24.9316C8.8424 24.0255 7.57961 22.7627 6.6676 21.1491C5.76143 19.5355 5.30542 17.6881 5.30542 15.6185C5.30542 13.549 5.75558 11.6957 6.6676 10.0704C7.57377 8.44519 8.83656 7.1824 10.4501 6.27038C12.0637 5.36421 13.9053 4.9082 15.9807 4.9082C18.0561 4.9082 20.6109 5.51621 22.3356 6.73223C24.0602 7.94825 25.2002 9.63198 25.7615 11.7892H20.1081L20.114 11.7951Z" fill="#727597"/>
<path d="M20.1549 11.8361C19.7749 11.1404 19.2312 10.6025 18.5238 10.2342C17.8164 9.86592 16.9862 9.67884 16.0274 9.67884C14.3729 9.67884 13.0458 10.2225 12.052 11.3099C11.0581 12.3973 10.5553 13.8472 10.5553 15.6596C10.5553 17.4719 11.0756 19.103 12.1221 20.1904C13.1686 21.2778 14.6068 21.8215 16.4425 21.8215C18.2782 21.8215 18.7576 21.5 19.6287 20.8627C20.494 20.2255 21.1312 19.3076 21.5287 18.1091H15.0394V14.3441H26.1648V19.0972C25.7848 20.3716 25.1417 21.5584 24.2356 22.6575C23.3294 23.7566 22.1777 24.6394 20.7804 25.3176C19.3832 25.9957 17.8105 26.3348 16.0566 26.3348C14.3028 26.3348 12.1338 25.8788 10.5086 24.9726C8.8833 24.0665 7.62051 22.8037 6.70849 21.1901C5.80232 19.5765 5.34631 17.7291 5.34631 15.6596C5.34631 13.59 5.79647 11.7367 6.70849 10.1115C7.61466 8.4862 8.87745 7.22341 10.491 6.3114C12.1046 5.40523 13.9462 4.94922 16.0216 4.94922C18.097 4.94922 20.6518 5.55723 22.3764 6.77325C24.1011 7.98927 25.2411 9.67299 25.8024 11.8303H20.149L20.1549 11.8361Z" fill="#727597"/>
<path d="M20.2016 11.8766C19.8216 11.1809 19.2779 10.6431 18.5705 10.2748C17.8631 9.90644 17.033 9.71936 16.0742 9.71936C14.4197 9.71936 13.0926 10.2631 12.0987 11.3505C11.1049 12.4379 10.6021 13.8877 10.6021 15.7001C10.6021 17.5124 11.1224 19.1435 12.1689 20.2309C13.2154 21.3183 14.6535 21.862 16.4893 21.862C18.325 21.862 18.8044 21.5405 19.6755 20.9032C20.5407 20.266 21.1779 19.3481 21.5755 18.1497H15.0862V14.3847H26.2116V19.1377C25.8316 20.4122 25.1885 21.599 24.2823 22.698C23.3761 23.7971 22.2244 24.6799 20.8272 25.3581C19.4299 26.0363 17.8573 26.3753 16.1034 26.3753C14.3495 26.3753 12.1806 25.9193 10.5553 25.0132C8.93005 24.107 7.66726 22.8442 6.75524 21.2306C5.84323 19.6171 5.39307 17.7697 5.39307 15.7001C5.39307 13.6305 5.84323 11.7772 6.75524 10.152C7.66141 8.52673 8.9242 7.26394 10.5378 6.35192C12.1513 5.44575 13.9929 4.98975 16.0683 4.98975C18.1437 4.98975 20.6986 5.59776 22.4232 6.81378C24.1478 8.0298 25.2879 9.71352 25.8491 11.8708H20.1958L20.2016 11.8766Z" fill="#727597"/>
<path d="M20.2425 11.9118C19.8625 11.2161 19.3188 10.6782 18.6114 10.3099C17.904 9.9416 17.0738 9.75452 16.1151 9.75452C14.4606 9.75452 13.1335 10.2982 12.1396 11.3856C11.1457 12.473 10.643 13.9229 10.643 15.7352C10.643 17.5476 11.1633 19.1787 12.2098 20.2661C13.2562 21.3535 14.6944 21.8972 16.5301 21.8972C18.3659 21.8972 18.8453 21.5756 19.7164 20.9384C20.5816 20.3012 21.2188 19.3833 21.6164 18.1848H15.127V14.4198H26.2525V19.1728C25.8725 20.4473 25.2294 21.6341 24.3232 22.7332C23.417 23.8323 22.2653 24.7151 20.8681 25.3932C19.4708 26.0714 17.8982 26.4105 16.1443 26.4105C14.3904 26.4105 12.2215 25.9545 10.5962 25.0483C8.97094 24.1421 7.70815 22.8794 6.79614 21.2658C5.88412 19.6522 5.43396 17.8048 5.43396 15.7352C5.43396 13.6657 5.88412 11.8124 6.79614 10.1871C7.70231 8.56189 8.9651 7.29909 10.5787 6.38708C12.1922 5.48091 14.0338 5.0249 16.1092 5.0249C18.1846 5.0249 20.7394 5.63291 22.4641 6.84893C24.1887 8.06495 25.3288 9.74867 25.89 11.9059H20.2367L20.2425 11.9118Z" fill="#727597"/>
<path d="M20.2835 11.9528C19.9035 11.2571 19.3598 10.7192 18.6524 10.3509C17.945 9.98262 17.1149 9.79554 16.1561 9.79554C14.5016 9.79554 13.1745 10.3392 12.1806 11.4266C11.1868 12.514 10.684 13.9639 10.684 15.7763C10.684 17.5886 11.2043 19.2197 12.2508 20.3071C13.2973 21.3945 14.7354 21.9382 16.5712 21.9382C18.4069 21.9382 18.8863 21.6167 19.7574 20.9794C20.6226 20.3422 21.2599 19.4243 21.6574 18.2258H15.1681V14.4608H26.2935V19.2139C25.9135 20.4883 25.2704 21.6751 24.3642 22.7742C23.4581 23.8733 22.3063 24.7561 20.9091 25.4343C19.5118 26.1124 17.9392 26.4515 16.1853 26.4515C14.4314 26.4515 12.2625 25.9955 10.6372 25.0893C9.01196 24.1832 7.74917 22.9204 6.83715 21.3068C5.93098 19.6932 5.47498 17.8458 5.47498 15.7763C5.47498 13.7067 5.92514 11.8534 6.83715 10.2282C7.74332 8.6029 9.00611 7.34011 10.6197 6.42809C12.2332 5.52193 14.0748 5.06592 16.1502 5.06592C18.2257 5.06592 20.7805 5.67393 22.5051 6.88995C24.2298 8.10597 25.3698 9.78969 25.931 11.947H20.2777L20.2835 11.9528Z" fill="#727597"/>
<path d="M20.3303 11.9938C19.9503 11.2981 19.4066 10.7603 18.6992 10.3919C17.9918 10.0236 17.1616 9.83655 16.2028 9.83655C14.5483 9.83655 13.2212 10.3803 12.2274 11.4677C11.2335 12.5551 10.7307 14.0049 10.7307 15.8173C10.7307 17.6296 11.2511 19.2607 12.2975 20.3481C13.344 21.4355 14.7822 21.9792 16.6179 21.9792C18.4536 21.9792 18.933 21.6577 19.8041 21.0204C20.6694 20.3832 21.3066 19.4653 21.7042 18.2668H15.2148V14.5019H26.3402V19.2549C25.9602 20.5293 25.3171 21.7161 24.411 22.8152C23.5048 23.9143 22.3531 24.7971 20.9558 25.4753C19.5586 26.1534 17.9859 26.4925 16.2321 26.4925C14.4782 26.4925 12.3092 26.0365 10.684 25.1304C9.05871 24.2242 7.79592 22.9614 6.88391 21.3478C5.97189 19.7343 5.52173 17.8868 5.52173 15.8173C5.52173 13.7477 5.97189 11.8944 6.88391 10.2692C7.79007 8.64392 9.05287 7.38113 10.6664 6.46911C12.28 5.56294 14.1216 5.10693 16.197 5.10693C18.2724 5.10693 20.8272 5.71494 22.5519 6.93096C24.2765 8.14699 25.4165 9.83071 25.9778 11.988H20.3244L20.3303 11.9938Z" fill="#727597"/>
<path d="M20.3712 12.029C19.9912 11.3333 19.4475 10.7954 18.7401 10.4271C18.0327 10.0588 17.2025 9.87171 16.2437 9.87171C14.5892 9.87171 13.2621 10.4154 12.2683 11.5028C11.2744 12.5902 10.7716 14.0401 10.7716 15.8524C10.7716 17.6648 11.292 19.2959 12.3384 20.3833C13.3849 21.4707 14.8231 22.0144 16.6588 22.0144C18.4945 22.0144 18.9739 21.6928 19.845 21.0556C20.7103 20.4183 21.3475 19.5005 21.7451 18.302H15.2557V14.537H26.3811V19.29C26.0011 20.5645 25.358 21.7513 24.4519 22.8504C23.5457 23.9495 22.394 24.8323 20.9967 25.5104C19.5995 26.1886 18.0268 26.5277 16.273 26.5277C14.5191 26.5277 12.3501 26.0717 10.7249 25.1655C9.09961 24.2593 7.83681 22.9965 6.9248 21.383C6.01278 19.7694 5.56262 17.922 5.56262 15.8524C5.56262 13.7829 6.01278 11.9296 6.9248 10.3043C7.83097 8.67907 9.09376 7.41628 10.7073 6.50427C12.3209 5.5981 14.1625 5.14209 16.2379 5.14209C18.3133 5.14209 20.8681 5.7501 22.5928 6.96612C24.3174 8.18214 25.4574 9.86586 26.0187 12.0231H20.3653L20.3712 12.029Z" fill="#727597"/>
<path d="M20.4121 12.0695C20.0321 11.3738 19.4884 10.8359 18.781 10.4676C18.0736 10.0993 17.2434 9.91224 16.2846 9.91224C14.6301 9.91224 13.303 10.4559 12.3092 11.5433C11.3153 12.6307 10.8125 14.0806 10.8125 15.893C10.8125 17.7053 11.3328 19.3364 12.3793 20.4238C13.4258 21.5112 14.864 22.0549 16.6997 22.0549C18.5354 22.0549 19.0148 21.7334 19.8859 21.0961C20.7512 20.4589 21.3884 19.541 21.7859 18.3425H15.2966V14.5775H26.422V19.3305C26.042 20.605 25.3989 21.7918 24.4928 22.8909C23.5866 23.99 22.4349 24.8728 21.0376 25.551C19.6404 26.2291 18.0677 26.5682 16.3139 26.5682C14.56 26.5682 12.391 26.1122 10.7658 25.206C9.1405 24.2999 7.87771 23.0371 6.96569 21.4235C6.05368 19.8099 5.60352 17.9625 5.60352 15.893C5.60352 13.8234 6.05368 11.9701 6.96569 10.3449C7.87186 8.7196 9.13465 7.45681 10.7482 6.54479C12.3618 5.63862 14.2034 5.18262 16.2788 5.18262C18.3542 5.18262 20.909 5.79063 22.6337 7.00665C24.3583 8.22267 25.4983 9.90639 26.0596 12.0637H20.4062L20.4121 12.0695Z" fill="#727597"/>
<path d="M20.4588 12.1105C20.0788 11.4148 19.5351 10.877 18.8277 10.5086C18.1203 10.1403 17.2902 9.95325 16.3314 9.95325C14.6769 9.95325 13.3498 10.497 12.3559 11.5844C11.3621 12.6718 10.8593 14.1216 10.8593 15.934C10.8593 17.7463 11.3796 19.3774 12.4261 20.4648C13.4726 21.5522 14.9107 22.0959 16.7465 22.0959C18.5822 22.0959 19.0616 21.7744 19.9327 21.1371C20.7979 20.4999 21.4352 19.582 21.8327 18.3835H15.3434V14.6186H26.4688V19.3716C26.0888 20.646 25.4457 21.8328 24.5395 22.9319C23.6333 24.031 22.4816 24.9138 21.0844 25.592C19.6871 26.2701 18.1145 26.6092 16.3606 26.6092C14.6067 26.6092 12.4378 26.1532 10.8125 25.247C9.18725 24.3409 7.92446 23.0781 7.01245 21.4645C6.10043 19.851 5.65027 18.0035 5.65027 15.934C5.65027 13.8644 6.10043 12.0111 7.01245 10.3859C7.91861 8.76062 9.18141 7.49783 10.795 6.58581C12.4085 5.67964 14.2501 5.22363 16.3255 5.22363C18.4009 5.22363 20.9558 5.83164 22.6804 7.04766C24.4051 8.26368 25.5451 9.94741 26.1063 12.1047H20.453L20.4588 12.1105Z" fill="#727597"/>
<path d="M20.4998 12.1457C20.1198 11.45 19.5761 10.9121 18.8687 10.5438C18.1613 10.1755 17.3312 9.98841 16.3724 9.98841C14.7179 9.98841 13.3908 10.5321 12.3969 11.6195C11.4031 12.7069 10.9003 14.1568 10.9003 15.9691C10.9003 17.7815 11.4206 19.4126 12.4671 20.5C13.5136 21.5874 14.9517 22.1311 16.7875 22.1311C18.6232 22.1311 19.1026 21.8095 19.9737 21.1723C20.8389 20.535 21.4762 19.6172 21.8737 18.4187H15.3844V14.6537H26.5098V19.4067C26.1298 20.6812 25.4867 21.868 24.5805 22.9671C23.6744 24.0662 22.5226 24.949 21.1254 25.6271C19.7281 26.3053 18.1555 26.6444 16.4016 26.6444C14.6477 26.6444 12.4788 26.1884 10.8535 25.2822C9.22827 24.376 7.96548 23.1132 7.05346 21.4997C6.14145 19.8861 5.69128 18.0387 5.69128 15.9691C5.69128 13.8996 6.14145 12.0463 7.05346 10.421C7.95963 8.79577 9.22242 7.53298 10.836 6.62097C12.4496 5.7148 14.2911 5.25879 16.3665 5.25879C18.442 5.25879 20.9968 5.8668 22.7214 7.08282C24.4461 8.29884 25.5861 9.98256 26.1473 12.1398H20.494L20.4998 12.1457Z" fill="#727597"/>
<path d="M20.5466 12.1867C20.1666 11.491 19.6229 10.9531 18.9155 10.5848C18.2081 10.2165 17.3779 10.0294 16.4191 10.0294C14.7647 10.0294 13.4376 10.5731 12.4437 11.6605C11.4498 12.7479 10.947 14.1978 10.947 16.0101C10.947 17.8225 11.4674 19.4536 12.5138 20.541C13.5603 21.6284 14.9985 22.1721 16.8342 22.1721C18.6699 22.1721 19.1493 21.8505 20.0204 21.2133C20.8857 20.5761 21.5229 19.6582 21.9205 18.4597H15.4311V14.6947H26.5565V19.4477C26.1765 20.7222 25.5335 21.909 24.6273 23.0081C23.7211 24.1072 22.5694 24.99 21.1721 25.6681C19.7749 26.3463 18.2023 26.6854 16.4484 26.6854C14.6945 26.6854 12.5255 26.2294 10.9003 25.3232C9.27502 24.4171 8.01223 23.1543 7.10021 21.5407C6.19404 19.9271 5.73804 18.0797 5.73804 16.0101C5.73804 13.9406 6.1882 12.0873 7.10021 10.462C8.00638 8.83679 9.26917 7.574 10.8827 6.66198C12.4963 5.75581 14.3379 5.2998 16.4133 5.2998C18.4887 5.2998 21.0435 5.90782 22.7682 7.12384C24.4928 8.33986 25.6328 10.0236 26.1941 12.1808H20.5408L20.5466 12.1867Z" fill="#727597"/>
<path d="M20.5875 12.2277C20.2075 11.532 19.6638 10.9941 18.9564 10.6258C18.249 10.2575 17.4188 10.0704 16.46 10.0704C14.8055 10.0704 13.4784 10.6141 12.4846 11.7015C11.4907 12.7889 10.9879 14.2388 10.9879 16.0512C10.9879 17.8635 11.5083 19.4946 12.5547 20.582C13.6012 21.6694 15.0394 22.2131 16.8751 22.2131C18.7108 22.2131 19.1902 21.8916 20.0613 21.2543C20.9266 20.6171 21.5638 19.6992 21.9614 18.5007H15.472V14.7357H26.5974V19.4888C26.2174 20.7632 25.5743 21.95 24.6682 23.0491C23.762 24.1482 22.6103 25.031 21.213 25.7092C19.8158 26.3873 18.2431 26.7264 16.4893 26.7264C14.7354 26.7264 12.5664 26.2704 10.9412 25.3642C9.31591 24.4581 8.05312 23.1953 7.14111 21.5817C6.22909 19.9681 5.77893 18.1207 5.77893 16.0512C5.77893 13.9816 6.22909 12.1283 7.14111 10.5031C8.04728 8.8778 9.31007 7.61501 10.9236 6.703C12.5372 5.79683 14.3788 5.34082 16.4542 5.34082C18.5296 5.34082 21.0844 5.94883 22.8091 7.16485C24.5337 8.38087 25.6737 10.0646 26.235 12.2219H20.5816L20.5875 12.2277Z" fill="#727597"/>
<path d="M20.6284 12.2629C20.2484 11.5672 19.7047 11.0293 18.9973 10.661C18.2899 10.2927 17.4597 10.1056 16.5009 10.1056C14.8464 10.1056 13.5193 10.6493 12.5255 11.7367C11.5316 12.8241 11.0288 14.274 11.0288 16.0863C11.0288 17.8987 11.5492 19.5298 12.5956 20.6172C13.6421 21.7046 15.0803 22.2483 16.916 22.2483C18.7517 22.2483 19.2311 21.9267 20.1022 21.2895C20.9675 20.6522 21.6047 19.7344 22.0023 18.5359H15.5129V14.7709H26.6383V19.5239C26.2583 20.7984 25.6152 21.9852 24.7091 23.0843C23.8029 24.1834 22.6512 25.0662 21.2539 25.7443C19.8567 26.4225 18.284 26.7616 16.5302 26.7616C14.7763 26.7616 12.6073 26.3056 10.9821 25.3994C9.35681 24.4932 8.09402 23.2304 7.182 21.6169C6.26999 20.0033 5.81982 18.1559 5.81982 16.0863C5.81982 14.0167 6.26999 12.1635 7.182 10.5382C8.08817 8.91296 9.35096 7.65017 10.9645 6.73815C12.5781 5.83198 14.4197 5.37598 16.4951 5.37598C18.5705 5.37598 21.1253 5.98399 22.85 7.20001C24.5746 8.41603 25.7146 10.0997 26.2759 12.257H20.6225L20.6284 12.2629Z" fill="#727597"/>
<path d="M20.6751 12.3034C20.2951 11.6077 19.7514 11.0698 19.044 10.7015C18.3366 10.3332 17.5065 10.1461 16.5477 10.1461C14.8932 10.1461 13.5661 10.6898 12.5722 11.7772C11.5784 12.8646 11.0756 14.3145 11.0756 16.1268C11.0756 17.9392 11.5959 19.5703 12.6424 20.6577C13.6889 21.7451 15.127 22.2888 16.9628 22.2888C18.7985 22.2888 19.2779 21.9672 20.149 21.33C21.0142 20.6928 21.6515 19.7749 22.049 18.5764H15.5597V14.8114H26.6851V19.5644C26.3051 20.8389 25.662 22.0257 24.7558 23.1248C23.8497 24.2239 22.6979 25.1067 21.3007 25.7848C19.9034 26.463 18.3308 26.8021 16.5769 26.8021C14.823 26.8021 12.6541 26.3461 11.0288 25.4399C9.40356 24.5338 8.14077 23.271 7.22875 21.6574C6.31674 20.0438 5.86658 18.1964 5.86658 16.1268C5.86658 14.0573 6.31674 12.204 7.22875 10.5787C8.13492 8.95349 9.39771 7.6907 11.0113 6.77868C12.6248 5.87251 14.4664 5.4165 16.5418 5.4165C18.6173 5.4165 21.1721 6.02451 22.8967 7.24053C24.6214 8.45656 25.7614 10.1403 26.3226 12.2975H20.6693L20.6751 12.3034Z" fill="#727597"/>
<path d="M20.7162 12.3444C20.3361 11.6487 19.7924 11.1108 19.085 10.7425C18.3777 10.3742 17.5475 10.1871 16.5887 10.1871C14.9342 10.1871 13.6071 10.7308 12.6132 11.8182C11.6194 12.9056 11.1166 14.3555 11.1166 16.1679C11.1166 17.9802 11.6369 19.6113 12.6834 20.6987C13.7299 21.7861 15.1681 22.3298 17.0038 22.3298C18.8395 22.3298 19.3189 22.0083 20.19 21.371C21.0552 20.7338 21.6925 19.8159 22.09 18.6174H15.6007V14.8524H26.7261V19.6055C26.3461 20.8799 25.703 22.0667 24.7968 23.1658C23.8907 24.2649 22.739 25.1477 21.3417 25.8259C19.9444 26.504 18.3718 26.8431 16.6179 26.8431C14.8641 26.8431 12.6951 26.3871 11.0698 25.4809C9.44458 24.5748 8.18179 23.312 7.26977 21.6984C6.35775 20.0848 5.90759 18.2374 5.90759 16.1679C5.90759 14.0983 6.35775 12.245 7.26977 10.6198C8.17594 8.9945 9.43873 7.73171 11.0523 6.8197C12.6659 5.91353 14.5074 5.45752 16.5829 5.45752C18.6583 5.45752 21.2131 6.06553 22.9377 7.28155C24.6624 8.49757 25.8024 10.1813 26.3636 12.3386H20.7103L20.7162 12.3444Z" fill="#727597"/>
<path d="M20.7629 12.3796C20.3829 11.6839 19.8392 11.146 19.1318 10.7777C18.4244 10.4094 17.5942 10.2223 16.6355 10.2223C14.981 10.2223 13.6539 10.766 12.66 11.8534C11.6661 12.9408 11.1634 14.3907 11.1634 16.203C11.1634 18.0153 11.6837 19.6465 12.7302 20.7339C13.7766 21.8213 15.2148 22.365 17.0505 22.365C18.8863 22.365 19.3657 22.0434 20.2367 21.4062C21.102 20.7689 21.7392 19.8511 22.1368 18.6526H15.6474V14.8876H26.7729V19.6406C26.3928 20.9151 25.7498 22.1019 24.8436 23.201C23.9374 24.3001 22.7857 25.1829 21.3885 25.861C19.9912 26.5392 18.4186 26.8783 16.6647 26.8783C14.9108 26.8783 12.7418 26.4223 11.1166 25.5161C9.49133 24.6099 8.22854 23.3471 7.31652 21.7336C6.40451 20.12 5.95435 18.2726 5.95435 16.203C5.95435 14.1334 6.40451 12.2802 7.31652 10.6549C8.22269 9.02966 9.48548 7.76687 11.099 6.85485C12.7126 5.94868 14.5542 5.49268 16.6296 5.49268C18.705 5.49268 21.2598 6.10069 22.9845 7.31671C24.7091 8.53273 25.8491 10.2164 26.4104 12.3737H20.7571L20.7629 12.3796Z" fill="#727597"/>
<path d="M20.8038 12.4206C20.4238 11.7249 19.8801 11.187 19.1727 10.8187C18.4653 10.4504 17.6351 10.2633 16.6763 10.2633C15.0219 10.2633 13.6948 10.807 12.7009 11.8944C11.707 12.9818 11.2043 14.4317 11.2043 16.244C11.2043 18.0564 11.7246 19.6875 12.771 20.7749C13.8175 21.8623 15.2557 22.406 17.0914 22.406C18.9272 22.406 19.4065 22.0844 20.2776 21.4472C21.1429 20.8099 21.7801 19.8921 22.1777 18.6936H15.6883V14.9286H26.8137V19.6816C26.4337 20.9561 25.7907 22.1429 24.8845 23.242C23.9783 24.3411 22.8266 25.2239 21.4293 25.902C20.0321 26.5802 18.4595 26.9193 16.7056 26.9193C14.9517 26.9193 12.7827 26.4633 11.1575 25.5571C9.53222 24.6509 8.26943 23.3881 7.35742 21.7746C6.4454 20.161 5.99524 18.3136 5.99524 16.244C5.99524 14.1745 6.4454 12.3212 7.35742 10.6959C8.26359 9.07067 9.52638 7.80788 11.1399 6.89587C12.7535 5.9897 14.5951 5.53369 16.6705 5.53369C18.7459 5.53369 21.3007 6.1417 23.0254 7.35772C24.75 8.57374 25.89 10.2575 26.4513 12.4147H20.798L20.8038 12.4206Z" fill="#727597"/>
<path d="M20.8447 12.4616C20.4647 11.7659 19.921 11.228 19.2136 10.8597C18.5062 10.4914 17.676 10.3043 16.7172 10.3043C15.0627 10.3043 13.7356 10.848 12.7418 11.9354C11.7479 13.0228 11.2451 14.4727 11.2451 16.285C11.2451 18.0974 11.7655 19.7285 12.8119 20.8159C13.8584 21.9033 15.2966 22.447 17.1323 22.447C18.968 22.447 19.4474 22.1255 20.3185 21.4882C21.1838 20.851 21.821 19.9331 22.2186 18.7346H15.7292V14.9696H26.8546V19.7226C26.4746 20.9971 25.8315 22.1839 24.9254 23.283C24.0192 24.3821 22.8675 25.2649 21.4702 25.9431C20.073 26.6212 18.5003 26.9603 16.7465 26.9603C14.9926 26.9603 12.8236 26.5043 11.1984 25.5981C9.57312 24.692 8.31033 23.4292 7.39831 21.8156C6.49214 20.202 6.03613 18.3546 6.03613 16.285C6.03613 14.2155 6.48629 12.3622 7.39831 10.7369C8.30448 9.11169 9.56727 7.8489 11.1808 6.93688C12.7944 6.03071 14.636 5.57471 16.7114 5.57471C18.7868 5.57471 21.3416 6.18272 23.0663 7.39874C24.7909 8.61476 25.9309 10.2985 26.4922 12.4557H20.8388L20.8447 12.4616Z" fill="#727597"/>
<path d="M20.8916 12.4963C20.5116 11.8006 19.9679 11.2627 19.2605 10.8944C18.5531 10.5261 17.7229 10.339 16.7641 10.339C15.1096 10.339 13.7825 10.8827 12.7887 11.9701C11.7948 13.0575 11.292 14.5074 11.292 16.3197C11.292 18.132 11.8123 19.7632 12.8588 20.8506C13.9053 21.938 15.3435 22.4817 17.1792 22.4817C19.0149 22.4817 19.4943 22.1601 20.3654 21.5229C21.2307 20.8856 21.8679 19.9678 22.2654 18.7693H15.7761V15.0043H26.9015V19.7573C26.5215 21.0318 25.8784 22.2186 24.9723 23.3177C24.0661 24.4168 22.9144 25.2996 21.5171 25.9777C20.1199 26.6559 18.5472 26.995 16.7933 26.995C15.0395 26.995 12.8705 26.539 11.2452 25.6328C9.61999 24.7266 8.3572 23.4638 7.44518 21.8503C6.53317 20.2367 6.08301 18.3893 6.08301 16.3197C6.08301 14.2501 6.53317 12.3969 7.44518 10.7716C8.35135 9.14636 9.61414 7.88357 11.2277 6.97155C12.8413 6.06538 14.6828 5.60938 16.7583 5.60938C18.8337 5.60938 21.3885 6.21739 23.1131 7.43341C24.8378 8.64943 25.9778 10.3331 26.539 12.4904H20.8857L20.8916 12.4963Z" fill="#727597"/>
<path d="M20.9325 12.5373C20.5525 11.8416 20.0088 11.3037 19.3014 10.9354C18.594 10.5671 17.7638 10.38 16.805 10.38C15.1505 10.38 13.8234 10.9237 12.8296 12.0111C11.8357 13.0985 11.3329 14.5484 11.3329 16.3607C11.3329 18.1731 11.8532 19.8042 12.8997 20.8916C13.9462 21.979 15.3844 22.5227 17.2201 22.5227C19.0558 22.5227 19.5352 22.2011 20.4063 21.5639C21.2715 20.9266 21.9088 20.0088 22.3063 18.8103H15.817V15.0453H26.9424V19.7983C26.5624 21.0728 25.9193 22.2596 25.0131 23.3587C24.107 24.4578 22.9553 25.3406 21.558 26.0187C20.1608 26.6969 18.5881 27.036 16.8342 27.036C15.0804 27.036 12.9114 26.58 11.2861 25.6738C9.66088 24.7676 8.39809 23.5048 7.48608 21.8913C6.57406 20.2777 6.1239 18.4303 6.1239 16.3607C6.1239 14.2912 6.57406 12.4379 7.48608 10.8126C8.39225 9.18737 9.65504 7.92458 11.2686 7.01257C12.8822 6.1064 14.7237 5.65039 16.7992 5.65039C18.8746 5.65039 21.4294 6.2584 23.154 7.47442C24.8787 8.69044 26.0187 10.3742 26.5799 12.5314H20.9266L20.9325 12.5373Z" fill="#727597"/>
<path d="M20.9734 12.5783C20.5933 11.8826 20.0496 11.3447 19.3422 10.9764C18.6349 10.6081 17.8047 10.421 16.8459 10.421C15.1914 10.421 13.8643 10.9647 12.8704 12.0521C11.8766 13.1395 11.3738 14.5894 11.3738 16.4017C11.3738 18.2141 11.8941 19.8452 12.9406 20.9326C13.9871 22.02 15.4253 22.5637 17.261 22.5637C19.0967 22.5637 19.5761 22.2421 20.4472 21.6049C21.3124 20.9677 21.9497 20.0498 22.3472 18.8513H15.8579V15.0863H26.9833V19.8393C26.6033 21.1138 25.9602 22.3006 25.054 23.3997C24.1479 24.4988 22.9962 25.3816 21.5989 26.0598C20.2016 26.7379 18.629 27.077 16.8751 27.077C15.1213 27.077 12.9523 26.621 11.327 25.7148C9.70178 24.8087 8.43899 23.5459 7.52697 21.9323C6.61496 20.3187 6.16479 18.4713 6.16479 16.4017C6.16479 14.3322 6.61496 12.4789 7.52697 10.8536C8.43314 9.22839 9.69593 7.9656 11.3095 7.05358C12.9231 6.14741 14.7646 5.69141 16.8401 5.69141C18.9155 5.69141 21.4703 6.29942 23.1949 7.51544C24.9196 8.73146 26.0596 10.4152 26.6208 12.5724H20.9675L20.9734 12.5783Z" fill="#727597"/>
<path d="M21.0201 12.6134C20.6401 11.9177 20.0964 11.3799 19.389 11.0116C18.6816 10.6433 17.8514 10.4562 16.8927 10.4562C15.2382 10.4562 13.9111 10.9999 12.9172 12.0873C11.9233 13.1747 11.4206 14.6246 11.4206 16.4369C11.4206 18.2492 11.9409 19.8803 12.9874 20.9677C14.0338 22.0551 15.472 22.5988 17.3077 22.5988C19.1435 22.5988 19.6229 22.2773 20.4939 21.6401C21.3592 21.0028 21.9964 20.085 22.394 18.8865H15.9046V15.1215H27.0301V19.8745C26.6501 21.149 26.007 22.3358 25.1008 23.4349C24.1946 24.534 23.0429 25.4167 21.6457 26.0949C20.2484 26.7731 18.6758 27.1122 16.9219 27.1122C15.168 27.1122 12.999 26.6561 11.3738 25.75C9.74853 24.8438 8.48574 23.581 7.57372 21.9675C6.66171 20.3539 6.21155 18.5065 6.21155 16.4369C6.21155 14.3673 6.66171 12.5141 7.57372 10.8888C8.47989 9.26355 9.74268 8.00075 11.3563 7.08874C12.9698 6.18257 14.8114 5.72656 16.8868 5.72656C18.9622 5.72656 21.517 6.33457 23.2417 7.55059C24.9663 8.76661 26.1063 10.4503 26.6676 12.6076H21.0143L21.0201 12.6134Z" fill="#727597"/>
<path d="M21.061 12.6545C20.681 11.9588 20.1373 11.4209 19.4299 11.0526C18.7225 10.6843 17.8923 10.4972 16.9335 10.4972C15.2791 10.4972 13.952 11.0409 12.9581 12.1283C11.9642 13.2157 11.4615 14.6656 11.4615 16.4779C11.4615 18.2903 11.9818 19.9214 13.0282 21.0088C14.0747 22.0962 15.5129 22.6399 17.3486 22.6399C19.1844 22.6399 19.6637 22.3183 20.5348 21.6811C21.4001 21.0438 22.0373 20.126 22.4349 18.9275H15.9455V15.1625H27.0709V19.9155C26.6909 21.19 26.0479 22.3768 25.1417 23.4759C24.2355 24.575 23.0838 25.4578 21.6865 26.1359C20.2893 26.8141 18.7167 27.1532 16.9628 27.1532C15.2089 27.1532 13.0399 26.6972 11.4147 25.791C9.78942 24.8848 8.52663 23.622 7.61462 22.0085C6.7026 20.3949 6.25244 18.5475 6.25244 16.4779C6.25244 14.4083 6.7026 12.5551 7.61462 10.9298C8.52079 9.30456 9.78358 8.04177 11.3971 7.12976C13.0107 6.22359 14.8523 5.76758 16.9277 5.76758C19.0031 5.76758 21.5579 6.37559 23.2826 7.59161C25.0072 8.80763 26.1472 10.4914 26.7085 12.6486H21.0552L21.061 12.6545Z" fill="#727597"/>
<path d="M21.1079 12.6955C20.7279 11.9998 20.1842 11.4619 19.4768 11.0936C18.7694 10.7253 17.9392 10.5382 16.9804 10.5382C15.3259 10.5382 13.9988 11.0819 13.005 12.1693C12.0111 13.2567 11.5083 14.7066 11.5083 16.5189C11.5083 18.3313 12.0286 19.9624 13.0751 21.0498C14.1216 22.1372 15.5598 22.6809 17.3955 22.6809C19.2312 22.6809 19.7106 22.3593 20.5817 21.7221C21.447 21.0849 22.0842 20.167 22.4817 18.9685H15.9924V15.2035H27.1178V19.9565C26.7378 21.231 26.0947 22.4178 25.1886 23.5169C24.2824 24.616 23.1307 25.4988 21.7334 26.1769C20.3362 26.8551 18.7635 27.1942 17.0097 27.1942C15.2558 27.1942 13.0868 26.7382 11.4616 25.832C9.8363 24.9258 8.57351 23.6631 7.66149 22.0495C6.74948 20.4359 6.29932 18.5885 6.29932 16.5189C6.29932 14.4494 6.74948 12.5961 7.66149 10.9708C8.56766 9.34558 9.83045 8.08279 11.444 7.17077C13.0576 6.2646 14.8992 5.80859 16.9746 5.80859C19.05 5.80859 21.6048 6.4166 23.3295 7.63262C25.0541 8.84865 26.1941 10.5324 26.7554 12.6896H21.102L21.1079 12.6955Z" fill="#727597"/>
<path d="M21.1488 12.7301C20.7688 12.0344 20.2251 11.4966 19.5177 11.1283C18.8103 10.76 17.9801 10.5729 17.0213 10.5729C15.3668 10.5729 14.0397 11.1166 13.0459 12.204C12.052 13.2914 11.5492 14.7413 11.5492 16.5536C11.5492 18.3659 12.0695 19.997 13.116 21.0844C14.1625 22.1718 15.6007 22.7155 17.4364 22.7155C19.2721 22.7155 19.7515 22.394 20.6226 21.7568C21.4879 21.1195 22.1251 20.2017 22.5226 19.0032H16.0333V15.2382H27.1587V19.9912C26.7787 21.2657 26.1356 22.4525 25.2295 23.5516C24.3233 24.6507 23.1716 25.5334 21.7743 26.2116C20.3771 26.8898 18.8044 27.2289 17.0505 27.2289C15.2967 27.2289 13.1277 26.7728 11.5025 25.8667C9.87719 24.9605 8.6144 23.6977 7.70239 22.0842C6.79037 20.4706 6.34021 18.6232 6.34021 16.5536C6.34021 14.484 6.79037 12.6308 7.70239 11.0055C8.60856 9.38025 9.87135 8.11745 11.4849 7.20544C13.0985 6.29927 14.94 5.84326 17.0155 5.84326C19.0909 5.84326 21.6457 6.45127 23.3703 7.66729C25.095 8.88331 26.235 10.567 26.7962 12.7243H21.1429L21.1488 12.7301Z" fill="#727597"/>
<path d="M21.1897 12.7712C20.8097 12.0755 20.266 11.5376 19.5586 11.1693C18.8512 10.801 18.021 10.6139 17.0622 10.6139C15.4077 10.6139 14.0806 11.1576 13.0868 12.245C12.0929 13.3324 11.5901 14.7823 11.5901 16.5946C11.5901 18.407 12.1104 20.0381 13.1569 21.1255C14.2034 22.2129 15.6416 22.7566 17.4773 22.7566C19.313 22.7566 19.7924 22.435 20.6635 21.7978C21.5287 21.1605 22.166 20.2427 22.5635 19.0442H16.0742V15.2792H27.1996V20.0322C26.8196 21.3067 26.1765 22.4935 25.2703 23.5926C24.3642 24.6917 23.2125 25.5745 21.8152 26.2526C20.418 26.9308 18.8453 27.2699 17.0914 27.2699C15.3376 27.2699 13.1686 26.8139 11.5433 25.9077C9.91809 25.0015 8.6553 23.7387 7.74328 22.1252C6.83127 20.5116 6.3811 18.6642 6.3811 16.5946C6.3811 14.525 6.83127 12.6718 7.74328 11.0465C8.64945 9.42126 9.91224 8.15847 11.5258 7.24645C13.1394 6.34029 14.9809 5.88428 17.0564 5.88428C19.1318 5.88428 21.6866 6.49229 23.4112 7.70831C25.1359 8.92433 26.2759 10.608 26.8371 12.7653H21.1838L21.1897 12.7712Z" fill="#727597"/>
<path d="M21.2364 12.8122C20.8564 12.1165 20.3127 11.5786 19.6053 11.2103C18.8979 10.842 18.0677 10.6549 17.109 10.6549C15.4545 10.6549 14.1274 11.1986 13.1335 12.286C12.1396 13.3734 11.6369 14.8233 11.6369 16.6356C11.6369 18.448 12.1572 20.0791 13.2037 21.1665C14.2501 22.2539 15.6883 22.7976 17.524 22.7976C19.3598 22.7976 19.8392 22.476 20.7103 21.8388C21.5755 21.2016 22.2127 20.2837 22.6103 19.0852H16.1209V15.3202H27.2464V20.0732C26.8664 21.3477 26.2233 22.5345 25.3171 23.6336C24.4109 24.7327 23.2592 25.6155 21.862 26.2936C20.4647 26.9718 18.8921 27.3109 17.1382 27.3109C15.3843 27.3109 13.2154 26.8549 11.5901 25.9487C9.96484 25.0425 8.70205 23.7798 7.79003 22.1662C6.87802 20.5526 6.42786 18.7052 6.42786 16.6356C6.42786 14.5661 6.87802 12.7128 7.79003 11.0875C8.6962 9.46228 9.95899 8.19949 11.5726 7.28747C13.1861 6.3813 15.0277 5.92529 17.1031 5.92529C19.1785 5.92529 21.7333 6.5333 23.458 7.74932C25.1826 8.96534 26.3227 10.6491 26.8839 12.8063H21.2306L21.2364 12.8122Z" fill="#727597"/>
<path d="M21.2773 12.8473C20.8973 12.1516 20.3536 11.6138 19.6462 11.2455C18.9388 10.8771 18.1086 10.6901 17.1499 10.6901C15.4954 10.6901 14.1683 11.2338 13.1744 12.3212C12.1805 13.4086 11.6778 14.8584 11.6778 16.6708C11.6778 18.4831 12.1981 20.1142 13.2446 21.2016C14.291 22.289 15.7292 22.8327 17.5649 22.8327C19.4007 22.8327 19.8801 22.5112 20.7511 21.874C21.6164 21.2367 22.2536 20.3188 22.6512 19.1204H16.1618V15.3554H27.2873V20.1084C26.9073 21.3829 26.2642 22.5697 25.358 23.6687C24.4518 24.7678 23.3001 25.6506 21.9029 26.3288C20.5056 27.007 18.933 27.346 17.1791 27.346C15.4252 27.346 13.2562 26.89 11.631 25.9839C10.0057 25.0777 8.74294 23.8149 7.83093 22.2013C6.91891 20.5878 6.46875 18.7404 6.46875 16.6708C6.46875 14.6012 6.91891 12.7479 7.83093 11.1227C8.7371 9.49743 9.99989 8.23464 11.6135 7.32263C13.227 6.41646 15.0686 5.96045 17.144 5.96045C19.2194 5.96045 21.7742 6.56846 23.4989 7.78448C25.2235 9.0005 26.3635 10.6842 26.9248 12.8415H21.2715L21.2773 12.8473Z" fill="#727597"/>
<path d="M21.3183 12.8884C20.9383 12.1926 20.3946 11.6548 19.6872 11.2865C18.9798 10.9182 18.1497 10.7311 17.1909 10.7311C15.5364 10.7311 14.2093 11.2748 13.2154 12.3622C12.2216 13.4496 11.7188 14.8995 11.7188 16.7118C11.7188 18.5241 12.2391 20.1552 13.2856 21.2426C14.3321 22.33 15.7702 22.8737 17.606 22.8737C19.4417 22.8737 19.9211 22.5522 20.7922 21.915C21.6574 21.2777 22.2946 20.3599 22.6922 19.1614H16.2029V15.3964H27.3283V20.1494C26.9483 21.4239 26.3052 22.6107 25.399 23.7098C24.4928 24.8089 23.3411 25.6916 21.9439 26.3698C20.5466 27.048 18.974 27.3871 17.2201 27.3871C15.4662 27.3871 13.2973 26.9311 11.672 26.0249C10.0467 25.1187 8.78396 23.8559 7.87194 22.2424C6.95993 20.6288 6.50977 18.7814 6.50977 16.7118C6.50977 14.6422 6.95993 12.789 7.87194 11.1637C8.77811 9.53845 10.0409 8.27566 11.6545 7.36364C13.268 6.45747 15.1096 6.00146 17.185 6.00146C19.2604 6.00146 21.8153 6.60948 23.5399 7.8255C25.2645 9.04152 26.4046 10.7252 26.9658 12.8825H21.3125L21.3183 12.8884Z" fill="#727597"/>
<path d="M21.3651 12.9289C20.9851 12.2332 20.4414 11.6953 19.734 11.327C19.0266 10.9587 18.1964 10.7716 17.2376 10.7716C15.5831 10.7716 14.256 11.3153 13.2622 12.4027C12.2683 13.4901 11.7655 14.94 11.7655 16.7523C11.7655 18.5647 12.2858 20.1958 13.3323 21.2832C14.3788 22.3706 15.817 22.9143 17.6527 22.9143C19.4884 22.9143 19.9678 22.5927 20.8389 21.9555C21.7042 21.3183 22.3414 20.4004 22.7389 19.2019H16.2496V15.4369H27.375V20.1899C26.995 21.4644 26.3519 22.6512 25.4458 23.7503C24.5396 24.8494 23.3879 25.7322 21.9906 26.4103C20.5934 27.0885 19.0207 27.4276 17.2669 27.4276C15.513 27.4276 13.344 26.9716 11.7188 26.0654C10.0935 25.1592 8.83071 23.8965 7.9187 22.2829C7.00668 20.6693 6.55652 18.8219 6.55652 16.7523C6.55652 14.6828 7.00668 12.8295 7.9187 11.2042C8.82486 9.57898 10.0877 8.31618 11.7012 7.40417C13.3148 6.498 15.1564 6.04199 17.2318 6.04199C19.3072 6.04199 21.862 6.65 23.5867 7.86602C25.3113 9.08204 26.4513 10.7658 27.0126 12.923H21.3592L21.3651 12.9289Z" fill="#727597"/>
<path d="M19.6112 11.2917C19.2312 10.596 18.6875 10.0581 17.9801 9.68981C17.2727 9.3215 16.4425 9.13442 15.4837 9.13442C13.8292 9.13442 12.5021 9.67812 11.5083 10.7655C10.5144 11.8529 10.0116 13.3028 10.0116 15.1151C10.0116 16.9275 10.532 18.5586 11.5784 19.646C12.6249 20.7334 14.0631 21.2771 15.8988 21.2771C17.7345 21.2771 18.2139 20.9555 19.085 20.3183C19.9503 19.6811 20.5875 18.7632 20.9851 17.5647H14.4957V13.7997H25.6211V18.5527C25.2411 19.8272 24.598 21.014 23.6919 22.1131C22.7857 23.2122 21.634 24.095 20.2367 24.7731C18.8395 25.4513 17.2668 25.7904 15.513 25.7904C13.7591 25.7904 11.5901 25.3344 9.96487 24.4282C8.33961 23.522 7.07682 22.2593 6.1648 20.6457C5.25863 19.0321 4.80847 17.1906 4.80847 15.1151C4.80847 13.0397 5.25863 11.1923 6.17065 9.56704C7.07682 7.94178 8.33961 6.67899 9.95317 5.76698C11.5667 4.86665 13.4083 4.41064 15.4837 4.41064C17.5592 4.41064 20.114 5.01865 21.8386 6.23468C23.5633 7.4507 24.7033 9.13442 25.2645 11.2917H19.6112Z" fill="#FA8A5B"/>
</g>
<defs>
<clipPath id="clip0_4849_1003">
<rect width="22.625" height="23.0167" fill="white" transform="translate(4.75 4.41016)"/>
</clipPath>
</defs>
</svg>
