<svg width="144" height="48" viewBox="0 0 144 48" fill="none" xmlns="http://www.w3.org/2000/svg">
<g clip-path="url(#clip0_4849_940)">
<path d="M29.2167 17.4028C28.6738 16.4089 27.8971 15.6406 26.8865 15.1144C25.876 14.5883 24.69 14.321 23.3203 14.321C20.9568 14.321 19.0609 15.0977 17.6411 16.6511C16.2213 18.2046 15.503 20.2758 15.503 22.8649C15.503 25.4539 16.2463 27.7841 17.7413 29.3375C19.2363 30.891 21.2908 31.6677 23.9133 31.6677C26.5358 31.6677 27.2206 31.2083 28.465 30.298C29.7011 29.3876 30.6114 28.0764 31.1793 26.3643H21.9089V20.9857H37.8023V27.7757C37.2595 29.5964 36.3408 31.2918 35.0462 32.862C33.7517 34.4321 32.1064 35.6932 30.1103 36.662C28.1142 37.6308 25.8676 38.1153 23.3621 38.1153C20.8565 38.1153 17.758 37.4638 15.4362 36.1693C13.1144 34.8748 11.3104 33.0708 10.0076 30.7657C8.71303 28.4606 8.06995 25.8298 8.06995 22.8649C8.06995 19.9 8.71303 17.2608 10.0159 14.939C11.3104 12.6172 13.1144 10.8132 15.4195 9.51037C17.7246 8.22419 20.3554 7.57275 23.3203 7.57275C26.2852 7.57275 29.9349 8.44134 32.3987 10.1785C34.8625 11.9157 36.4911 14.321 37.2929 17.4028H29.2167Z" fill="#727597"/>
<path d="M29.2752 17.4531C28.7323 16.4592 27.9556 15.6908 26.945 15.1647C25.9344 14.6385 24.7485 14.3712 23.3788 14.3712C21.0152 14.3712 19.1194 15.148 17.6996 16.7014C16.2798 18.2548 15.5615 20.3261 15.5615 22.9151C15.5615 25.5042 16.3048 27.8343 17.7998 29.3878C19.2948 30.9412 21.3493 31.7179 23.9718 31.7179C26.5942 31.7179 27.2791 31.2586 28.5235 30.3482C29.7596 29.4379 30.6699 28.1266 31.2378 26.4145H21.9673V21.036H37.8608V27.826C37.3179 29.6467 36.3992 31.3421 35.1047 32.9122C33.8102 34.4823 32.1649 35.7435 30.1688 36.7123C28.1727 37.6811 25.9261 38.1655 23.4205 38.1655C20.915 38.1655 17.8165 37.514 15.4947 36.2195C13.1729 34.925 11.3689 33.121 10.066 30.8159C8.77986 28.5192 8.12842 25.88 8.12842 22.9235C8.12842 19.9669 8.77151 17.3194 10.0744 14.9976C11.3689 12.6758 13.1729 10.8718 15.478 9.56896C17.7831 8.27444 20.4223 7.63135 23.3788 7.63135C26.3353 7.63135 29.9934 8.49993 32.4572 10.2371C34.921 11.9743 36.5496 14.3796 37.3513 17.4614H29.2752V17.4531Z" fill="#727597"/>
<path d="M29.342 17.5112C28.7992 16.5173 28.0225 15.749 27.0119 15.2228C26.0013 14.6967 24.8154 14.4294 23.4457 14.4294C21.0821 14.4294 19.1863 15.2061 17.7665 16.7595C16.3467 18.313 15.6284 20.3842 15.6284 22.9733C15.6284 25.5623 16.3717 27.8925 17.8667 29.4459C19.3617 30.9994 21.4162 31.7761 24.0387 31.7761C26.6611 31.7761 27.346 31.3167 28.5904 30.4064C29.8264 29.496 30.7368 28.1848 31.3047 26.4727H22.0342V21.0941H37.9277V27.8841C37.3848 29.7048 36.4661 31.4002 35.1716 32.9704C33.8771 34.5405 32.2318 35.8016 30.2357 36.7704C28.2396 37.7392 25.993 38.2236 23.4874 38.2236C20.9819 38.2236 17.8834 37.5722 15.5616 36.2777C13.2398 34.9832 11.4358 33.1792 10.1329 30.8741C8.8384 28.5773 8.19531 25.9382 8.19531 22.9733C8.19531 20.0084 8.8384 17.3692 10.1413 15.0474C11.4358 12.7256 13.2398 10.9216 15.5449 9.61877C17.85 8.33259 20.4808 7.68115 23.4457 7.68115C26.4106 7.68115 30.0603 8.54974 32.5241 10.2869C34.9879 12.0241 36.6165 14.4294 37.4182 17.5112H29.342Z" fill="#727597"/>
<path d="M29.4004 17.5698C28.8576 16.5759 28.0809 15.8076 27.0703 15.2814C26.0597 14.7552 24.8738 14.488 23.5041 14.488C21.1405 14.488 19.2447 15.2647 17.8249 16.8181C16.4051 18.3716 15.6868 20.4428 15.6868 23.0319C15.6868 25.6209 16.4301 27.9511 17.9251 29.5045C19.4201 31.0579 21.4746 31.8347 24.0971 31.8347C26.7195 31.8347 27.4044 31.3753 28.6488 30.465C29.8848 29.5546 30.7952 28.2434 31.3631 26.5313H22.0926V21.1527H37.9861V27.9427C37.4432 29.7634 36.5245 31.4588 35.23 33.029C33.9355 34.5991 32.2902 35.8602 30.2941 36.829C28.298 37.7978 26.0514 38.2822 23.5458 38.2822C21.0403 38.2822 17.9418 37.6308 15.62 36.3363C13.2982 35.0417 11.4942 33.2378 10.1913 30.9327C8.8968 28.6276 8.24536 25.9884 8.24536 23.0319C8.24536 20.0753 8.88845 17.4278 10.1913 15.106C11.4859 12.7842 13.2898 10.9802 15.5949 9.67736C17.9084 8.39119 20.5392 7.73975 23.5041 7.73975C26.469 7.73975 30.1187 8.60833 32.5825 10.3455C35.0463 12.0827 36.6749 14.488 37.4766 17.5698H29.4004Z" fill="#727597"/>
<path d="M29.4589 17.62C28.9161 16.6262 28.1393 15.8578 27.1288 15.3317C26.1182 14.8055 24.9322 14.5382 23.5626 14.5382C21.199 14.5382 19.3031 15.315 17.8833 16.8684C16.4635 18.4218 15.7453 20.4931 15.7453 23.0821C15.7453 25.6712 16.4886 28.0013 17.9836 29.5548C19.4785 31.1082 21.5331 31.8849 24.1555 31.8849C26.778 31.8849 27.4628 31.4256 28.7073 30.5152C29.9433 29.6049 30.8537 28.2936 31.4216 26.5815H22.1511V21.203H38.0446V27.993C37.5017 29.8137 36.583 31.5091 35.2885 33.0792C33.9939 34.6493 32.3486 35.9105 30.3526 36.8793C28.3565 37.8481 26.1098 38.3325 23.6043 38.3325C21.0988 38.3325 18.0003 37.681 15.6785 36.3865C13.3567 35.092 11.5527 33.288 10.2498 30.9829C8.95527 28.6778 8.30383 26.0386 8.30383 23.0821C8.30383 20.1256 8.94692 17.4781 10.2498 15.1563C11.5443 12.8345 13.3483 11.0305 15.6534 9.7276C17.9669 8.44143 20.606 7.79834 23.5709 7.79834C26.5358 7.79834 30.1855 8.66693 32.6493 10.4041C35.1131 12.1413 36.7417 14.5466 37.5435 17.6284H29.4673L29.4589 17.62Z" fill="#727597"/>
<path d="M29.5258 17.6782C28.9829 16.6843 28.2062 15.916 27.1956 15.3898C26.185 14.8636 24.9991 14.5964 23.6294 14.5964C21.2658 14.5964 19.37 15.3731 17.9502 16.9265C16.5304 18.48 15.8121 20.5512 15.8121 23.1403C15.8121 25.7293 16.5554 28.0595 18.0504 29.6129C19.5454 31.1663 21.5999 31.9431 24.2224 31.9431C26.8448 31.9431 27.5297 31.4837 28.7741 30.5734C30.0102 29.663 30.9205 28.3518 31.4884 26.6397H22.2179V21.2611H38.1114V28.0511C37.5685 29.8718 36.6498 31.5672 35.3553 33.1374C34.0608 34.7075 32.4155 35.9686 30.4194 36.9374C28.4233 37.9062 26.1767 38.3906 23.6712 38.3906C21.1656 38.3906 18.0671 37.7392 15.7453 36.4447C13.4235 35.1501 11.6195 33.3462 10.3166 31.0411C9.01376 28.736 8.37903 26.1052 8.37903 23.1403C8.37903 20.1754 9.02212 17.5362 10.325 15.2144C11.6195 12.8926 13.4235 11.0886 15.7286 9.78576C18.0337 8.49958 20.6645 7.84814 23.6294 7.84814C26.5943 7.84814 30.244 8.71673 32.7078 10.4539C35.1716 12.1911 36.8002 14.5964 37.6019 17.6782H29.5258Z" fill="#727597"/>
<path d="M29.5842 17.7368C29.0413 16.743 28.2646 15.9746 27.254 15.4485C26.2434 14.9223 25.0575 14.655 23.6878 14.655C21.3242 14.655 19.4284 15.4318 18.0086 16.9852C16.5888 18.5386 15.8705 20.6099 15.8705 23.1989C15.8705 25.788 16.6138 28.1181 18.1088 29.6716C19.6038 31.225 21.6583 32.0017 24.2808 32.0017C26.9032 32.0017 27.5881 31.5424 28.8325 30.632C30.0686 29.7217 30.9789 28.4104 31.5468 26.6983H22.2763V21.3198H38.1698V28.1098C37.6269 29.9305 36.7082 31.6259 35.4137 33.196C34.1192 34.7661 32.4739 36.0273 30.4778 36.9961C28.4817 37.9649 26.2351 38.4493 23.7296 38.4493C21.224 38.4493 18.1255 37.7978 15.8037 36.5033C13.4819 35.2088 11.6779 33.4048 10.375 31.0997C9.08052 28.7946 8.42908 26.1555 8.42908 23.1989C8.42908 20.2424 9.07216 17.5949 10.375 15.2731C11.6696 12.9513 13.4736 11.1473 15.7787 9.8444C18.0837 8.54988 20.7146 7.89844 23.6794 7.89844C26.6443 7.89844 30.2941 8.76702 32.7578 10.5042C35.2216 12.2414 36.8502 14.6467 37.652 17.7285H29.5758L29.5842 17.7368Z" fill="#727597"/>
<path d="M29.6511 17.7871C29.1082 16.7933 28.3315 16.0249 27.3209 15.4987C26.3103 14.9726 25.1244 14.7053 23.7547 14.7053C21.3911 14.7053 19.4953 15.482 18.0755 17.0355C16.6557 18.5889 15.9374 20.6602 15.9374 23.2492C15.9374 25.8383 16.6807 28.1684 18.1757 29.7218C19.6707 31.2753 21.7252 32.052 24.3477 32.052C26.9701 32.052 27.655 31.5926 28.8994 30.6823C30.1355 29.772 31.0458 28.4607 31.6137 26.7486H22.3432V21.3701H38.2367V28.1601C37.6938 29.9808 36.7751 31.6762 35.4806 33.2463C34.1861 34.8164 32.5408 36.0776 30.5447 37.0464C28.5486 38.0152 26.302 38.4996 23.7965 38.4996C21.2909 38.4996 18.1924 37.8481 15.8706 36.5536C13.5488 35.2591 11.7448 33.4551 10.4419 31.15C9.14741 28.8449 8.49597 26.2057 8.49597 23.2492C8.49597 20.2927 9.13906 17.6452 10.4419 15.3234C11.7365 13.0016 13.5405 11.1976 15.8455 9.8947C18.1506 8.60017 20.7815 7.94873 23.7463 7.94873C26.7112 7.94873 30.361 8.81732 32.8247 10.5545C35.2885 12.2917 36.9171 14.697 37.7189 17.7788H29.6427L29.6511 17.7871Z" fill="#727597"/>
<path d="M29.7095 17.8452C29.1666 16.8514 28.3899 16.083 27.3793 15.5569C26.3688 15.0307 25.1828 14.7634 23.8131 14.7634C21.4496 14.7634 19.5537 15.5402 18.1339 17.0936C16.7141 18.647 15.9958 20.7183 15.9958 23.3073C15.9958 25.8964 16.7391 28.2265 18.2341 29.78C19.7291 31.3334 21.7836 32.1101 24.4061 32.1101C27.0286 32.1101 27.7134 31.6508 28.9578 30.7404C30.1939 29.8301 31.1042 28.5188 31.6721 26.8067H22.4017V21.4282H38.2951V28.2182C37.7523 30.0389 36.8336 31.7343 35.539 33.3044C34.2445 34.8745 32.5992 36.1357 30.6031 37.1045C28.607 38.0733 26.3604 38.5577 23.8549 38.5577C21.3493 38.5577 18.2508 37.9062 15.929 36.6117C13.6072 35.3172 11.8032 33.5132 10.5004 31.2081C9.19748 28.903 8.56274 26.2722 8.56274 23.3073C8.56274 20.3424 9.20583 17.7033 10.5087 15.3815C11.8032 13.0597 13.6072 11.2557 15.9123 9.9528C18.2174 8.65828 20.8482 8.00684 23.8131 8.00684C26.778 8.00684 30.4277 8.87542 32.8915 10.6126C35.3553 12.3498 36.9839 14.7551 37.7857 17.8369H29.7095V17.8452Z" fill="#727597"/>
<path d="M29.768 17.9038C29.2251 16.91 28.4484 16.1416 27.4378 15.6154C26.4273 15.0893 25.2413 14.822 23.8716 14.822C21.5081 14.822 19.6122 15.5987 18.1924 17.1522C16.7726 18.7056 16.0544 20.7769 16.0544 23.3659C16.0544 25.955 16.7977 28.2851 18.2926 29.8385C19.7876 31.392 21.8422 32.1687 24.4646 32.1687C27.0871 32.1687 27.7719 31.7093 29.0163 30.799C30.2524 29.8887 31.1627 28.5774 31.7307 26.8653H22.4602V21.4868H38.3536V28.2768C37.8108 30.0975 36.8921 31.7929 35.5975 33.363C34.303 34.9331 32.6577 36.1943 30.6616 37.1631C28.6656 38.1319 26.4189 38.6163 23.9134 38.6163C21.4079 38.6163 18.3093 37.9648 15.9875 36.6703C13.6657 35.3758 11.8618 33.5718 10.5589 31.2667C9.26435 28.9616 8.61292 26.3224 8.61292 23.3659C8.61292 20.4094 9.256 17.7619 10.5589 15.4401C11.8534 13.1183 13.6574 11.3143 15.9625 10.0114C18.2676 8.71687 20.8984 8.06543 23.8633 8.06543C26.8282 8.06543 30.4779 8.93402 32.9417 10.6712C35.4055 12.4084 37.0341 14.8137 37.8358 17.8955H29.7596L29.768 17.9038Z" fill="#727597"/>
<path d="M29.8348 17.9541C29.2919 16.9603 28.5152 16.1919 27.5046 15.6657C26.4941 15.1396 25.3081 14.8723 23.9384 14.8723C21.5749 14.8723 19.679 15.649 18.2592 17.2025C16.8394 18.7559 16.1211 20.8271 16.1211 23.4162C16.1211 26.0053 16.8644 28.3354 18.3594 29.8888C19.8544 31.4423 21.9089 32.219 24.5314 32.219C27.1538 32.219 27.8387 31.7596 29.0831 30.8493C30.3192 29.939 31.2295 28.6277 31.7974 26.9156H22.527V21.537H38.4204V28.3271C37.8775 30.1477 36.9588 31.8432 35.6643 33.4133C34.3698 34.9834 32.7245 36.2446 30.7284 37.2134C28.7323 38.1822 26.4857 38.6666 23.9802 38.6666C21.4746 38.6666 18.3761 38.0151 16.0543 36.7206C13.7325 35.4261 11.9285 33.6221 10.6257 31.317C9.33113 29.0119 8.67969 26.3727 8.67969 23.4162C8.67969 20.4597 9.32278 17.8122 10.6257 15.4904C11.9202 13.1686 13.7242 11.3646 16.0293 10.0617C18.3344 8.76716 20.9652 8.11572 23.9301 8.11572C26.8949 8.11572 30.5447 8.98431 33.0085 10.7215C35.4722 12.4587 37.1008 14.864 37.9026 17.9458H29.8264L29.8348 17.9541Z" fill="#727597"/>
<path d="M29.8932 18.0127C29.3504 17.0189 28.5737 16.2505 27.5631 15.7243C26.5525 15.1982 25.3666 14.9309 23.9969 14.9309C21.6333 14.9309 19.7375 15.7076 18.3177 17.2611C16.8979 18.8145 16.1796 20.8857 16.1796 23.4748C16.1796 26.0639 16.9229 28.394 18.4179 29.9474C19.9129 31.5009 21.9674 32.2776 24.5899 32.2776C27.2123 32.2776 27.8972 31.8182 29.1416 30.9079C30.3776 29.9975 31.288 28.6863 31.8559 26.9742H22.5854V21.5956H38.4789V28.3856C37.936 30.2063 37.0173 31.9018 35.7228 33.4719C34.4283 35.042 32.783 36.3031 30.7869 37.272C28.7908 38.2408 26.5442 38.7252 24.0386 38.7252C21.5331 38.7252 18.4346 38.0737 16.1128 36.7792C13.791 35.4847 11.987 33.6807 10.6841 31.3756C9.3896 29.0705 8.73816 26.4313 8.73816 23.4748C8.73816 20.5183 9.38125 17.8707 10.6841 15.5489C11.9787 13.2271 13.7826 11.4232 16.0877 10.1203C18.3928 8.82576 21.0236 8.17432 23.9885 8.17432C26.9534 8.17432 30.6031 9.0429 33.0669 10.7801C35.5307 12.5172 37.1593 14.9226 37.9611 18.0044H29.8849L29.8932 18.0127Z" fill="#727597"/>
<path d="M29.9517 18.0708C29.4088 17.077 28.6321 16.3086 27.6216 15.7824C26.611 15.2563 25.425 14.989 24.0554 14.989C21.6918 14.989 19.7959 15.7657 18.3761 17.3192C16.9563 18.8726 16.2381 20.9438 16.2381 23.5329C16.2381 26.122 16.9814 28.4521 18.4764 30.0055C19.9713 31.559 22.0259 32.3357 24.6483 32.3357C27.2708 32.3357 27.9556 31.8763 29.2001 30.966C30.4361 30.0557 31.3465 28.7444 31.9144 27.0323H22.6439V21.6537H38.5374V28.4438C37.9945 30.2644 37.0758 31.9599 35.7813 33.53C34.4867 35.1001 32.8414 36.3612 30.8454 37.3301C28.8493 38.2989 26.6026 38.7833 24.0971 38.7833C21.5916 38.7833 18.4931 38.1318 16.1713 36.8373C13.8495 35.5428 12.0455 33.7388 10.7426 31.4337C9.43972 29.1286 8.79663 26.4894 8.79663 23.5329C8.79663 20.5764 9.43972 17.9289 10.7426 15.6071C12.0371 13.2853 13.8411 11.4813 16.1462 10.1784C18.4513 8.88386 21.0821 8.23242 24.047 8.23242C27.0119 8.23242 30.6616 9.10101 33.1254 10.8382C35.5892 12.5754 37.2178 14.9807 38.0195 18.0625H29.9434L29.9517 18.0708Z" fill="#727597"/>
<path d="M30.0185 18.1211C29.4756 17.1273 28.6989 16.3589 27.6883 15.8327C26.6778 15.3066 25.4918 15.0393 24.1221 15.0393C21.7586 15.0393 19.8627 15.816 18.4429 17.3695C17.0231 18.9229 16.3048 20.9941 16.3048 23.5832C16.3048 26.1722 17.0482 28.5024 18.5431 30.0558C20.0381 31.6093 22.0926 32.386 24.7151 32.386C27.3376 32.386 28.0224 31.9266 29.2668 31.0163C30.5029 30.1059 31.4132 28.7947 31.9812 27.0826H22.7107V21.704H38.6041V28.494C38.0613 30.3147 37.1426 32.0102 35.848 33.5803C34.5535 35.1504 32.9082 36.4115 30.9121 37.3804C28.9161 38.3492 26.6694 38.8336 24.1639 38.8336C21.6583 38.8336 18.5598 38.1821 16.238 36.8876C13.9162 35.5931 12.1122 33.7891 10.8094 31.484C9.51484 29.1789 8.8634 26.5397 8.8634 23.5832C8.8634 20.6267 9.50649 17.9791 10.8094 15.6573C12.1039 13.3355 13.9079 11.5316 16.213 10.2287C18.5181 8.93415 21.1489 8.28271 24.1138 8.28271C27.0787 8.28271 30.7284 9.1513 33.1922 10.8885C35.6559 12.6256 37.2845 15.031 38.0863 18.1128H30.0101L30.0185 18.1211Z" fill="#727597"/>
<path d="M30.077 18.1797C29.5341 17.1859 28.7574 16.4175 27.7468 15.8913C26.7362 15.3652 25.5503 15.0979 24.1806 15.0979C21.817 15.0979 19.9212 15.8746 18.5014 17.4281C17.0816 18.9815 16.3633 21.0527 16.3633 23.6418C16.3633 26.2308 17.1066 28.561 18.6016 30.1144C20.0966 31.6679 22.1511 32.4446 24.7736 32.4446C27.396 32.4446 28.0809 31.9852 29.3253 31.0749C30.5614 30.1645 31.4717 28.8533 32.0396 27.1412H22.7691V21.7626H38.6626V28.5526C38.1197 30.3733 37.201 32.0687 35.9065 33.6389C34.612 35.209 32.9667 36.4701 30.9706 37.4389C28.9745 38.4078 26.7279 38.8922 24.2224 38.8922C21.7168 38.8922 18.6183 38.2407 16.2965 36.9462C13.9747 35.6517 12.1707 33.8477 10.8678 31.5426C9.57331 29.2375 8.92188 26.5983 8.92188 23.6418C8.92188 20.6853 9.56496 18.0377 10.8678 15.7159C12.1624 13.3941 13.9664 11.5902 16.2715 10.2873C18.5765 8.99275 21.2074 8.34131 24.1722 8.34131C27.1371 8.34131 30.7869 9.20989 33.2506 10.9471C35.7144 12.6842 37.343 15.0896 38.1448 18.1714H30.0686L30.077 18.1797Z" fill="#727597"/>
<path d="M30.1437 18.2378C29.6009 17.244 28.8241 16.4756 27.8136 15.9494C26.803 15.4233 25.6171 15.156 24.2474 15.156C21.8838 15.156 19.988 15.9327 18.5682 17.4862C17.1483 19.0396 16.4301 21.1108 16.4301 23.6999C16.4301 26.2889 17.1734 28.6191 18.6684 30.1725C20.1633 31.726 22.2179 32.5027 24.8403 32.5027C27.4628 32.5027 28.1477 32.0433 29.3921 31.133C30.6281 30.2226 31.5385 28.9114 32.1064 27.1993H22.8359V21.8207H38.7294V28.6107C38.1865 30.4314 37.2678 32.1269 35.9733 33.697C34.6788 35.2671 33.0335 36.5282 31.0374 37.4971C29.0413 38.4659 26.7947 38.9503 24.2891 38.9503C21.7836 38.9503 18.6851 38.2988 16.3633 37.0043C14.0415 35.7098 12.2375 33.9058 10.9346 31.6007C9.63174 29.2956 8.98865 26.6564 8.98865 23.6999C8.98865 20.7434 9.63174 18.0958 10.9346 15.774C12.2291 13.4522 14.0331 11.6483 16.3382 10.3454C18.6433 9.05085 21.2741 8.39941 24.239 8.39941C27.2039 8.39941 30.8536 9.268 33.3174 11.0052C35.7812 12.7423 37.4098 15.1477 38.2116 18.2295H30.1354L30.1437 18.2378Z" fill="#727597"/>
<path d="M30.2022 18.2881C29.6593 17.2943 28.8826 16.5259 27.8721 15.9997C26.8615 15.4736 25.6755 15.2063 24.3058 15.2063C21.9423 15.2063 20.0464 15.983 18.6266 17.5365C17.2068 19.0899 16.4886 21.1611 16.4886 23.7502C16.4886 26.3392 17.2319 28.6694 18.7268 30.2228C20.2218 31.7763 22.2764 32.553 24.8988 32.553C27.5213 32.553 28.2061 32.0936 29.4505 31.1833C30.6866 30.2729 31.597 28.9617 32.1649 27.2496H22.8944V21.871H38.7878V28.661C38.245 30.4817 37.3263 32.1771 36.0318 33.7473C34.7372 35.3174 33.0919 36.5785 31.0958 37.5473C29.0998 38.5162 26.8531 39.0006 24.3476 39.0006C21.8421 39.0006 18.7435 38.3491 16.4218 37.0546C14.1 35.7601 12.296 33.9561 10.9931 31.651C9.69021 29.3459 9.04712 26.7067 9.04712 23.7502C9.04712 20.7937 9.69021 18.1461 10.9931 15.8243C12.2876 13.5025 14.0916 11.6986 16.3967 10.3957C18.7018 9.10115 21.3326 8.44971 24.2975 8.44971C27.2624 8.44971 30.9121 9.31829 33.3759 11.0555C35.8397 12.7926 37.4683 15.198 38.27 18.2798H30.1939L30.2022 18.2881Z" fill="#727597"/>
<path d="M30.2607 18.3467C29.7178 17.3528 28.9411 16.5845 27.9305 16.0583C26.92 15.5322 25.734 15.2649 24.3643 15.2649C22.0008 15.2649 20.1049 16.0416 18.6851 17.595C17.2653 19.1485 16.547 21.2197 16.547 23.8088C16.547 26.3978 17.2903 28.728 18.7853 30.2814C20.2803 31.8348 22.3348 32.6116 24.9573 32.6116C27.5798 32.6116 28.2646 32.1522 29.509 31.2419C30.7451 30.3315 31.6554 29.0203 32.2233 27.3082H22.9529V21.9296H38.8463V28.7196C38.3034 30.5403 37.3848 32.2357 36.0902 33.8059C34.7957 35.376 33.1504 36.6371 31.1543 37.6059C29.1582 38.5747 26.9116 39.0591 24.4061 39.0591C21.9005 39.0591 18.802 38.4077 16.4802 37.1132C14.1584 35.8187 12.3544 34.0147 11.0516 31.7096C9.75703 29.4045 9.10559 26.7653 9.10559 23.8088C9.10559 20.8522 9.74868 18.2047 11.0516 15.8829C12.3461 13.5611 14.1501 11.7571 16.4552 10.4543C18.7603 9.15974 21.3911 8.5083 24.356 8.5083C27.3208 8.5083 30.9706 9.37689 33.4344 11.1141C35.8981 12.8512 37.5267 15.2565 38.3285 18.3384H30.2523L30.2607 18.3467Z" fill="#727597"/>
<path d="M30.3274 18.4048C29.7846 17.411 29.0079 16.6426 27.9973 16.1164C26.9867 15.5903 25.8008 15.323 24.4311 15.323C22.0675 15.323 20.1717 16.0997 18.7519 17.6532C17.3321 19.2066 16.6138 21.2778 16.6138 23.8669C16.6138 26.4559 17.3571 28.7861 18.8521 30.3395C20.3471 31.893 22.4016 32.6697 25.0241 32.6697C27.6465 32.6697 28.3314 32.2103 29.5758 31.3C30.8119 30.3896 31.7222 29.0784 32.2901 27.3663H23.0196V21.9877H38.9131V28.7777C38.3702 30.5984 37.4515 32.2938 36.157 33.864C34.8625 35.4341 33.2172 36.6952 31.2211 37.664C29.225 38.6329 26.9784 39.1173 24.4728 39.1173C21.9673 39.1173 18.8688 38.4658 16.547 37.1713C14.2252 35.8768 12.4212 34.0728 11.1183 31.7677C9.81545 29.4626 9.17236 26.8234 9.17236 23.8669C9.17236 20.9104 9.81545 18.2628 11.1183 15.941C12.4129 13.6192 14.2168 11.8153 16.5219 10.5124C18.827 9.21785 21.4578 8.56641 24.4227 8.56641C27.3876 8.56641 31.0373 9.43499 33.5011 11.1722C35.9649 12.9093 37.5935 15.3147 38.3953 18.3965H30.3191L30.3274 18.4048Z" fill="#727597"/>
<path d="M30.386 18.4551C29.8432 17.4612 29.0665 16.6929 28.0559 16.1667C27.0453 15.6406 25.8594 15.3733 24.4897 15.3733C22.1261 15.3733 20.2303 16.15 18.8105 17.7034C17.3907 19.2569 16.6724 21.3281 16.6724 23.9172C16.6724 26.5062 17.4157 28.8364 18.9107 30.3898C20.4057 31.9433 22.4602 32.72 25.0827 32.72C27.7051 32.72 28.39 32.2606 29.6344 31.3503C30.8704 30.4399 31.7808 29.1287 32.3487 27.4166H23.0782V22.038H38.9717V28.828C38.4288 30.6487 37.5101 32.3441 36.2156 33.9143C34.9211 35.4844 33.2758 36.7455 31.2797 37.7143C29.2836 38.6831 27.037 39.1675 24.5314 39.1675C22.0259 39.1675 18.9274 38.5161 16.6056 37.2216C14.2838 35.9271 12.4798 34.1231 11.1769 31.818C9.87404 29.5129 9.23096 26.8737 9.23096 23.9172C9.23096 20.9606 9.87404 18.3131 11.1769 15.9913C12.4715 13.6695 14.2754 11.8655 16.5805 10.5627C18.8856 9.26814 21.5164 8.6167 24.4813 8.6167C27.4462 8.6167 31.0959 9.48529 33.5597 11.2225C36.0235 12.9596 37.6521 15.3649 38.4539 18.4468H30.3777L30.386 18.4551Z" fill="#727597"/>
<path d="M30.4444 18.5137C29.9015 17.5198 29.1248 16.7515 28.1142 16.2253C27.1037 15.6991 25.9177 15.4319 24.548 15.4319C22.1845 15.4319 20.2886 16.2086 18.8688 17.762C17.449 19.3155 16.7308 21.3867 16.7308 23.9758C16.7308 26.5648 17.4741 28.895 18.969 30.4484C20.464 32.0018 22.5185 32.7786 25.141 32.7786C27.7635 32.7786 28.4483 32.3192 29.6927 31.4089C30.9288 30.4985 31.8391 29.1873 32.4071 27.4752H23.1366V22.0966H39.03V28.8866C38.4872 30.7073 37.5685 32.4027 36.2739 33.9729C34.9794 35.543 33.3341 36.8041 31.338 37.7729C29.342 38.7417 27.0953 39.2261 24.5898 39.2261C22.0842 39.2261 18.9857 38.5747 16.6639 37.2802C14.3421 35.9856 12.5382 34.1817 11.2353 31.8766C9.93239 29.5715 9.28931 26.9323 9.28931 23.9758C9.28931 21.0192 9.93239 18.3717 11.2353 16.0499C12.5298 13.7281 14.3338 11.9241 16.6389 10.6213C18.944 9.32673 21.5748 8.67529 24.5397 8.67529C27.5046 8.67529 31.1543 9.54388 33.6181 11.2811C36.0818 13.0182 37.7104 15.4235 38.5122 18.5054H30.436L30.4444 18.5137Z" fill="#727597"/>
<path d="M30.5113 18.5718C29.9684 17.5779 29.1917 16.8096 28.1811 16.2834C27.1706 15.7573 25.9846 15.49 24.6149 15.49C22.2514 15.49 20.3555 16.2667 18.9357 17.8201C17.5159 19.3736 16.7976 21.4448 16.7976 24.0339C16.7976 26.6229 17.541 28.9531 19.0359 30.5065C20.5309 32.0599 22.5854 32.8367 25.2079 32.8367C27.8304 32.8367 28.5152 32.3773 29.7596 31.467C30.9957 30.5566 31.906 29.2454 32.474 27.5333H23.2035V22.1547H39.0969V28.9447C38.5541 30.7654 37.6354 32.4608 36.3408 34.031C35.0463 35.6011 33.401 36.8622 31.4049 37.831C29.4088 38.7998 27.1622 39.2842 24.6567 39.2842C22.1511 39.2842 19.0526 38.6328 16.7308 37.3383C14.409 36.0438 12.605 34.2398 11.3022 31.9347C9.99929 29.6296 9.3562 26.9904 9.3562 24.0339C9.3562 21.0773 9.99929 18.4298 11.3022 16.108C12.5967 13.7862 14.4007 11.9822 16.7058 10.6794C19.0109 9.38484 21.6417 8.7334 24.6066 8.7334C27.5715 8.7334 31.2212 9.60198 33.685 11.3392C36.1487 13.0763 37.7773 15.4816 38.5791 18.5635H30.5029L30.5113 18.5718Z" fill="#727597"/>
<path d="M30.5698 18.6221C30.0269 17.6282 29.2502 16.8599 28.2396 16.3337C27.229 15.8075 26.0431 15.5403 24.6734 15.5403C22.3098 15.5403 20.414 16.317 18.9942 17.8704C17.5744 19.4239 16.8561 21.4951 16.8561 24.0842C16.8561 26.6732 17.5994 29.0034 19.0944 30.5568C20.5894 32.1102 22.6439 32.887 25.2664 32.887C27.8888 32.887 28.5737 32.4276 29.8181 31.5173C31.0542 30.6069 31.9645 29.2957 32.5324 27.5836H23.2619V22.205H39.1554V28.995C38.6125 30.8157 37.6938 32.5111 36.3993 34.0813C35.1048 35.6514 33.4595 36.9125 31.4634 37.8813C29.4673 38.8501 27.2207 39.3345 24.7152 39.3345C22.2096 39.3345 19.1111 38.6831 16.7893 37.3886C14.4675 36.094 12.6635 34.2901 11.3606 31.985C10.0578 29.6799 9.41467 27.0407 9.41467 24.0842C9.41467 21.1276 10.0578 18.4801 11.3606 16.1583C12.6552 13.8365 14.4592 12.0325 16.7642 10.7297C19.0693 9.43513 21.7002 8.78369 24.665 8.78369C27.6299 8.78369 31.2797 9.65228 33.7434 11.3895C36.2072 13.1266 37.8358 15.5319 38.6376 18.6137H30.5614L30.5698 18.6221Z" fill="#727597"/>
<path d="M30.6365 18.6807C30.0937 17.6868 29.3169 16.9185 28.3064 16.3923C27.2958 15.8661 26.1099 15.5989 24.7402 15.5989C22.3766 15.5989 20.4808 16.3756 19.0609 17.929C17.6411 19.4825 16.9229 21.5537 16.9229 24.1428C16.9229 26.7318 17.6662 29.062 19.1612 30.6154C20.6561 32.1688 22.7107 32.9455 25.3331 32.9455C27.9556 32.9455 28.6405 32.4862 29.8849 31.5759C31.1209 30.6655 32.0313 29.3543 32.5992 27.6422H23.3287V22.2636H39.2222V29.0536C38.6793 30.8743 37.7606 32.5697 36.4661 34.1399C35.1716 35.71 33.5262 36.9711 31.5302 37.9399C29.5341 38.9087 27.2875 39.3931 24.7819 39.3931C22.2764 39.3931 19.1779 38.7417 16.8561 37.4472C14.5343 36.1526 12.7303 34.3487 11.4274 32.0436C10.1329 29.7385 9.48145 27.0993 9.48145 24.1428C9.48145 21.1862 10.1245 18.5387 11.4274 16.2169C12.7219 13.8951 14.5259 12.0911 16.831 10.7883C19.1361 9.49372 21.7669 8.84229 24.7318 8.84229C27.6967 8.84229 31.3464 9.71087 33.8102 11.448C36.274 13.1852 37.9026 15.5905 38.7044 18.6723H30.6282L30.6365 18.6807Z" fill="#727597"/>
<path d="M30.695 18.7393C30.1521 17.7454 29.3754 16.9771 28.3649 16.4509C27.3543 15.9247 26.1683 15.6575 24.7986 15.6575C22.4351 15.6575 20.5392 16.4342 19.1194 17.9876C17.6996 19.5411 16.9814 21.6123 16.9814 24.2014C16.9814 26.7904 17.7247 29.1206 19.2196 30.674C20.7146 32.2274 22.7692 33.0041 25.3916 33.0041C28.0141 33.0041 28.6989 32.5448 29.9433 31.6345C31.1794 30.7241 32.0898 29.4129 32.6577 27.7008H23.3872V22.3222H39.2806V29.1122C38.7378 30.9329 37.8191 32.6283 36.5246 34.1985C35.23 35.7686 33.5847 37.0297 31.5886 37.9985C29.5926 38.9673 27.3459 39.4517 24.8404 39.4517C22.3349 39.4517 19.2363 38.8003 16.9145 37.5058C14.5928 36.2112 12.7888 34.4072 11.4859 32.1022C10.183 29.7971 9.53992 27.1579 9.53992 24.2014C9.53992 21.2448 10.183 18.5973 11.4859 16.2755C12.7804 13.9537 14.5844 12.1497 16.8895 10.8468C19.1946 9.55232 21.8254 8.90088 24.7903 8.90088C27.7552 8.90088 31.4049 9.76947 33.8687 11.5066C36.3325 13.2438 37.9611 15.6491 38.7628 18.7309H30.6866L30.695 18.7393Z" fill="#727597"/>
<path d="M30.7535 18.7891C30.2106 17.7952 29.4339 17.0269 28.4233 16.5007C27.4128 15.9745 26.2268 15.7073 24.8571 15.7073C22.4936 15.7073 20.5977 16.484 19.1779 18.0374C17.7581 19.5909 17.0398 21.6621 17.0398 24.2512C17.0398 26.8402 17.7831 29.1704 19.2781 30.7238C20.7731 32.2772 22.8276 33.054 25.4501 33.054C28.0725 33.054 28.7574 32.5946 30.0018 31.6843C31.2379 30.7739 32.1482 29.4627 32.7161 27.7506H23.4457V22.372H39.3391V29.162C38.7962 30.9827 37.8776 32.6781 36.583 34.2483C35.2885 35.8184 33.6432 37.0795 31.6471 38.0483C29.651 39.0171 27.4044 39.5015 24.8989 39.5015C22.3933 39.5015 19.2948 38.8501 16.973 37.5556C14.6512 36.261 12.8472 34.4571 11.5444 32.152C10.2415 29.8469 9.59839 27.2077 9.59839 24.2512C9.59839 21.2946 10.2415 18.6471 11.5444 16.3253C12.8389 14.0035 14.6429 12.1995 16.948 10.8967C19.2531 9.60212 21.8839 8.95068 24.8488 8.95068C27.8136 8.95068 31.4634 9.81927 33.9272 11.5564C36.3909 13.2936 38.0195 15.6989 38.8213 18.7807H30.7451L30.7535 18.7891Z" fill="#727597"/>
<path d="M30.8202 18.8477C30.2774 17.8538 29.5007 17.0855 28.4901 16.5593C27.4795 16.0331 26.2936 15.7659 24.9239 15.7659C22.5603 15.7659 20.6645 16.5426 19.2447 18.096C17.8249 19.6495 17.1066 21.7207 17.1066 24.3098C17.1066 26.8988 17.8499 29.229 19.3449 30.7824C20.8399 32.3358 22.8944 33.1125 25.5169 33.1125C28.1393 33.1125 28.8242 32.6532 30.0686 31.7428C31.3046 30.8325 32.215 29.5213 32.7829 27.8092H23.5124V22.4306H39.4059V29.2206C38.863 31.0413 37.9443 32.7367 36.6498 34.3068C35.3553 35.877 33.71 37.1381 31.7139 38.1069C29.7178 39.0757 27.4712 39.5601 24.9656 39.5601C22.4601 39.5601 19.3616 38.9087 17.0398 37.6142C14.718 36.3196 12.914 34.5156 11.6111 32.2106C10.3082 29.9055 9.66516 27.2663 9.66516 24.3098C9.66516 21.3532 10.3082 18.7057 11.6111 16.3839C12.9057 14.0621 14.7096 12.2581 17.0147 10.9552C19.3198 9.66072 21.9506 9.00928 24.9155 9.00928C27.8804 9.00928 31.5301 9.87786 33.9939 11.615C36.4577 13.3522 38.0863 15.7575 38.8881 18.8393H30.8119L30.8202 18.8477Z" fill="#727597"/>
<path d="M30.8787 18.9063C30.3359 17.9124 29.5591 17.1441 28.5486 16.6179C27.538 16.0917 26.352 15.8245 24.9824 15.8245C22.6188 15.8245 20.7229 16.6012 19.3031 18.1546C17.8833 19.7081 17.1651 21.7793 17.1651 24.3684C17.1651 26.9574 17.9084 29.2876 19.4034 30.841C20.8983 32.3944 22.9529 33.1711 25.5753 33.1711C28.1978 33.1711 28.8826 32.7118 30.1271 31.8014C31.3631 30.8911 32.2735 29.5799 32.8414 27.8678H23.5709V22.4892H39.4644V29.2792C38.9215 31.0999 38.0028 32.7953 36.7083 34.3654C35.4137 35.9356 33.7684 37.1967 31.7724 38.1655C29.7763 39.1343 27.5296 39.6187 25.0241 39.6187C22.5186 39.6187 19.4201 38.9673 17.0983 37.6728C14.7765 36.3782 12.9725 34.5742 11.6696 32.2691C10.3667 29.9641 9.72363 27.3249 9.72363 24.3684C9.72363 21.4118 10.3667 18.7643 11.6696 16.4425C12.9641 14.1207 14.7681 12.3167 17.0732 11.0138C19.3783 9.71931 22.0091 9.06787 24.974 9.06787C27.9389 9.06787 31.5886 9.93646 34.0524 11.6736C36.5162 13.4108 38.1448 15.8161 38.9465 18.8979H30.8704L30.8787 18.9063Z" fill="#727597"/>
<path d="M30.9456 18.9561C30.4027 17.9622 29.626 17.1939 28.6155 16.6677C27.6049 16.1415 26.4189 15.8743 25.0492 15.8743C22.6857 15.8743 20.7898 16.651 19.37 18.2044C17.9502 19.7579 17.232 21.8291 17.232 24.4182C17.232 27.0072 17.9753 29.3374 19.4703 30.8908C20.9652 32.4442 23.0198 33.2209 25.6422 33.2209C28.2647 33.2209 28.9495 32.7616 30.1939 31.8512C31.43 30.9409 32.3404 29.6297 32.9083 27.9176H23.6378V22.539H39.5313V29.329C38.9884 31.1497 38.0697 32.8451 36.7752 34.4152C35.4806 35.9854 33.8353 37.2465 31.8393 38.2153C29.8432 39.1841 27.5965 39.6685 25.091 39.6685C22.5855 39.6685 19.487 39.0171 17.1652 37.7226C14.8434 36.428 13.0394 34.624 11.7365 32.3189C10.4336 30.0139 9.79053 27.3747 9.79053 24.4182C9.79053 21.4616 10.4336 18.8141 11.7365 16.4923C13.031 14.1705 14.835 12.3665 17.1401 11.0636C19.4452 9.76912 22.076 9.11768 25.0409 9.11768C28.0058 9.11768 31.6555 9.98626 34.1193 11.7234C36.5831 13.4606 38.2117 15.8659 39.0134 18.9477H30.9373L30.9456 18.9561Z" fill="#727597"/>
<path d="M31.004 19.0147C30.4611 18.0208 29.6844 17.2524 28.6738 16.7263C27.6632 16.2001 26.4773 15.9329 25.1076 15.9329C22.744 15.9329 20.8482 16.7096 19.4284 18.263C18.0086 19.8165 17.2903 21.8877 17.2903 24.4767C17.2903 27.0658 18.0336 29.396 19.5286 30.9494C21.0236 32.5028 23.0781 33.2795 25.7006 33.2795C28.323 33.2795 29.0079 32.8202 30.2523 31.9098C31.4884 30.9995 32.3987 29.6883 32.9666 27.9762H23.6961V22.5976H39.5896V29.3876C39.0467 31.2083 38.128 32.9037 36.8335 34.4738C35.539 36.044 33.8937 37.3051 31.8976 38.2739C29.9015 39.2427 27.6549 39.7271 25.1494 39.7271C22.6438 39.7271 19.5453 39.0757 17.2235 37.7812C14.9017 36.4866 13.0977 34.6826 11.7948 32.3775C10.492 30.0724 9.84888 27.4333 9.84888 24.4767C9.84888 21.5202 10.492 18.8727 11.7948 16.5509C13.0894 14.2291 14.8934 12.4251 17.1985 11.1222C19.5035 9.82771 22.1344 9.17627 25.0992 9.17627C28.0641 9.17627 31.7139 10.0449 34.1776 11.782C36.6414 13.5192 38.27 15.9245 39.0718 19.0063H30.9956L31.004 19.0147Z" fill="#727597"/>
<path d="M31.0624 19.0733C30.5196 18.0794 29.7428 17.311 28.7323 16.7849C27.7217 16.2587 26.5358 15.9915 25.1661 15.9915C22.8025 15.9915 20.9067 16.7682 19.4869 18.3216C18.067 19.875 17.3488 21.9463 17.3488 24.5353C17.3488 27.1244 18.0921 29.4545 19.5871 31.008C21.082 32.5614 23.1366 33.3381 25.759 33.3381C28.3815 33.3381 29.0664 32.8788 30.3108 31.9684C31.5468 31.0581 32.4572 29.7469 33.0251 28.0347H23.7546V22.6562H39.6481V29.4462C39.1052 31.2669 38.1865 32.9623 36.892 34.5324C35.5975 36.1026 33.9522 37.3637 31.9561 38.3325C29.96 39.3013 27.7134 39.7857 25.2078 39.7857C22.7023 39.7857 19.6038 39.1343 17.282 37.8397C14.9602 36.5452 13.1562 34.7412 11.8533 32.4361C10.5588 30.131 9.90735 27.4919 9.90735 24.5353C9.90735 21.5788 10.5504 18.9313 11.8533 16.6095C13.1478 14.2877 14.9518 12.4837 17.2569 11.1808C19.562 9.8863 22.1928 9.23486 25.1577 9.23486C28.1226 9.23486 31.7723 10.1034 34.2361 11.8406C36.6999 13.5778 38.3285 15.9831 39.1303 19.0649H31.0541L31.0624 19.0733Z" fill="#727597"/>
<path d="M31.1293 19.1231C30.5865 18.1292 29.8097 17.3608 28.7992 16.8347C27.7886 16.3085 26.6027 16.0413 25.233 16.0413C22.8694 16.0413 20.9736 16.818 19.5537 18.3714C18.1339 19.9248 17.4157 21.9961 17.4157 24.5851C17.4157 27.1742 18.159 29.5044 19.654 31.0578C21.1489 32.6112 23.2035 33.3879 25.8259 33.3879C28.4484 33.3879 29.1332 32.9286 30.3777 32.0182C31.6137 31.1079 32.5241 29.7967 33.092 28.0845H23.8215V22.706H39.715V29.496C39.1721 31.3167 38.2534 33.0121 36.9589 34.5822C35.6644 36.1524 34.019 37.4135 32.023 38.3823C30.0269 39.3511 27.7803 39.8355 25.2747 39.8355C22.7692 39.8355 19.6707 39.1841 17.3489 37.8895C15.0271 36.595 13.2231 34.791 11.9202 32.4859C10.6173 30.1808 9.97424 27.5417 9.97424 24.5851C9.97424 21.6286 10.6173 18.9811 11.9202 16.6593C13.2147 14.3375 15.0187 12.5335 17.3238 11.2306C19.6289 9.93611 22.2597 9.28467 25.2246 9.28467C28.1895 9.28467 31.8392 10.1533 34.303 11.8904C36.7668 13.6276 38.3954 16.0329 39.1972 19.1147H31.121L31.1293 19.1231Z" fill="#727597"/>
<path d="M31.1878 19.1817C30.6449 18.1878 29.8682 17.4194 28.8576 16.8933C27.8471 16.3671 26.6611 16.0999 25.2914 16.0999C22.9279 16.0999 21.032 16.8766 19.6122 18.43C18.1924 19.9834 17.4742 22.0547 17.4742 24.6437C17.4742 27.2328 18.2175 29.5629 19.7124 31.1164C21.2074 32.6698 23.262 33.4465 25.8844 33.4465C28.5069 33.4465 29.1917 32.9872 30.4361 32.0768C31.6722 31.1665 32.5825 29.8553 33.1505 28.1431H23.88V22.7646H39.7734V29.5546C39.2306 31.3753 38.3119 33.0707 37.0173 34.6408C35.7228 36.211 34.0775 37.4721 32.0814 38.4409C30.0854 39.4097 27.8387 39.8941 25.3332 39.8941C22.8277 39.8941 19.7291 39.2427 17.4073 37.9481C15.0855 36.6536 13.2816 34.8496 11.9787 32.5445C10.6758 30.2394 10.0327 27.6003 10.0327 24.6437C10.0327 21.6872 10.6758 19.0397 11.9787 16.7179C13.2732 14.3961 15.0772 12.5921 17.3823 11.2892C19.6874 9.9947 22.3182 9.34326 25.2831 9.34326C28.248 9.34326 31.8977 10.2118 34.3615 11.949C36.8253 13.6862 38.4539 16.0915 39.2556 19.1733H31.1794L31.1878 19.1817Z" fill="#727597"/>
<path d="M31.2463 19.2403C30.7034 18.2464 29.9267 17.478 28.9161 16.9519C27.9056 16.4257 26.7196 16.1585 25.3499 16.1585C22.9864 16.1585 21.0905 16.9352 19.6707 18.4886C18.2509 20.042 17.5326 22.1133 17.5326 24.7023C17.5326 27.2914 18.2759 29.6215 19.7709 31.175C21.2659 32.7284 23.3204 33.5051 25.9429 33.5051C28.5653 33.5051 29.2502 33.0458 30.4946 32.1354C31.7307 31.2251 32.641 29.9139 33.2089 28.2017H23.9385V22.8232H39.8319V29.6132C39.289 31.4339 38.3703 33.1293 37.0758 34.6994C35.7813 36.2696 34.136 37.5307 32.1399 38.4995C30.1438 39.4683 27.8972 39.9527 25.3917 39.9527C22.8861 39.9527 19.7876 39.3013 17.4658 38.0067C15.144 36.7122 13.34 34.9082 12.0372 32.6031C10.7343 30.298 10.0912 27.6589 10.0912 24.7023C10.0912 21.7458 10.7343 19.0983 12.0372 16.7765C13.3317 14.4547 15.1357 12.6507 17.4408 11.3478C19.7459 10.0533 22.3767 9.40186 25.3416 9.40186C28.3064 9.40186 31.9562 10.2704 34.42 12.0076C36.8837 13.7448 38.5123 16.1501 39.3141 19.2319H31.2379L31.2463 19.2403Z" fill="#727597"/>
<path d="M31.313 19.2906C30.7702 18.2967 29.9935 17.5283 28.9829 17.0022C27.9723 16.476 26.7864 16.2087 25.4167 16.2087C23.0531 16.2087 21.1573 16.9855 19.7375 18.5389C18.3177 20.0923 17.5994 22.1636 17.5994 24.7526C17.5994 27.3417 18.3427 29.6718 19.8377 31.2253C21.3327 32.7787 23.3872 33.5554 26.0097 33.5554C28.6321 33.5554 29.317 33.0961 30.5614 32.1857C31.7974 31.2754 32.7078 29.9641 33.2757 28.252H24.0052V22.8735H39.8987V29.6635C39.3558 31.4842 38.4371 33.1796 37.1426 34.7497C35.8481 36.3199 34.2028 37.581 32.2067 38.5498C30.2106 39.5186 27.964 40.003 25.4584 40.003C22.9529 40.003 19.8544 39.3516 17.5326 38.057C15.2108 36.7625 13.4068 34.9585 12.1039 32.6534C10.801 30.3483 10.158 27.7092 10.158 24.7526C10.158 21.7961 10.801 19.1486 12.1039 16.8268C13.3985 14.505 15.2024 12.701 17.5075 11.3981C19.8126 10.1036 22.4434 9.45215 25.4083 9.45215C28.3732 9.45215 32.0229 10.3207 34.4867 12.0579C36.9505 13.7951 38.5791 16.2004 39.3809 19.2822H31.3047L31.313 19.2906Z" fill="#727597"/>
<path d="M31.3715 19.3487C30.8286 18.3548 30.0519 17.5864 29.0414 17.0603C28.0308 16.5341 26.8448 16.2669 25.4752 16.2669C23.1116 16.2669 21.2157 17.0436 19.7959 18.597C18.3761 20.1504 17.6579 22.2217 17.6579 24.8107C17.6579 27.3998 18.4012 29.7299 19.8962 31.2834C21.3911 32.8368 23.4457 33.6135 26.0681 33.6135C28.6906 33.6135 29.3754 33.1542 30.6199 32.2438C31.8559 31.3335 32.7663 30.0223 33.3342 28.3101H24.0637V22.9316H39.9572V29.7216C39.4143 31.5423 38.4956 33.2377 37.2011 34.8078C35.9065 36.378 34.2612 37.6391 32.2652 38.6079C30.2691 39.5767 28.0224 40.0611 25.5169 40.0611C23.0114 40.0611 19.9129 39.4097 17.5911 38.1151C15.2693 36.8206 13.4653 35.0166 12.1624 32.7115C10.8595 30.4064 10.2164 27.7673 10.2164 24.8107C10.2164 21.8542 10.8595 19.2067 12.1624 16.8849C13.4569 14.5631 15.2609 12.7591 17.566 11.4562C19.8711 10.1617 22.5019 9.51025 25.4668 9.51025C28.4317 9.51025 32.0814 10.3788 34.5452 12.116C37.009 13.8532 38.6376 16.2585 39.4393 19.3403H31.3632L31.3715 19.3487Z" fill="#727597"/>
<path d="M31.4383 19.4073C30.8954 18.4134 30.1187 17.645 29.1081 17.1189C28.0976 16.5927 26.9116 16.3254 25.5419 16.3254C23.1784 16.3254 21.2825 17.1022 19.8627 18.6556C18.4429 20.209 17.7246 22.2803 17.7246 24.8693C17.7246 27.4584 18.468 29.7885 19.9629 31.342C21.4579 32.8954 23.5124 33.6721 26.1349 33.6721C28.7574 33.6721 29.4422 33.2128 30.6866 32.3024C31.9227 31.3921 32.833 30.0808 33.401 28.3687H24.1305V22.9902H40.0239V29.7802C39.4811 31.6009 38.5624 33.2963 37.2678 34.8664C35.9733 36.4366 34.328 37.6977 32.3319 38.6665C30.3359 39.6353 28.0892 40.1197 25.5837 40.1197C23.0781 40.1197 19.9796 39.4683 17.6578 38.1737C15.336 36.8792 13.532 35.0752 12.2292 32.7701C10.9263 30.465 10.2832 27.8259 10.2832 24.8693C10.2832 21.9128 10.9263 19.2653 12.2292 16.9435C13.5237 14.6217 15.3277 12.8177 17.6328 11.5148C19.9379 10.2203 22.5687 9.56885 25.5336 9.56885C28.4985 9.56885 32.1482 10.4374 34.612 12.1746C37.0757 13.9118 38.7043 16.3171 39.5061 19.3989H31.4299L31.4383 19.4073Z" fill="#727597"/>
<path d="M31.4968 19.4576C30.9539 18.4637 30.1772 17.6953 29.1666 17.1692C28.156 16.643 26.9701 16.3757 25.6004 16.3757C23.2368 16.3757 21.341 17.1525 19.9212 18.7059C18.5014 20.2593 17.7831 22.3306 17.7831 24.9196C17.7831 27.5087 18.5264 29.8388 20.0214 31.3923C21.5164 32.9457 23.5709 33.7224 26.1934 33.7224C28.8158 33.7224 29.5007 33.2631 30.7451 32.3527C31.9812 31.4424 32.8915 30.1311 33.4594 28.419H24.1889V23.0405H40.0824V29.8305C39.5395 31.6512 38.6208 33.3466 37.3263 34.9167C36.0318 36.4868 34.3865 37.748 32.3904 38.7168C30.3943 39.6856 28.1477 40.17 25.6422 40.17C23.1366 40.17 20.0381 39.5185 17.7163 38.224C15.3945 36.9295 13.5905 35.1255 12.2876 32.8204C10.9848 30.5153 10.3417 27.8762 10.3417 24.9196C10.3417 21.9631 10.9848 19.3156 12.2876 16.9938C13.5822 14.672 15.3862 12.868 17.6913 11.5651C19.9963 10.2706 22.6272 9.61914 25.592 9.61914C28.5569 9.61914 32.2067 10.4877 34.6704 12.2249C37.1342 13.9621 38.7628 16.3674 39.5646 19.4492H31.4884L31.4968 19.4576Z" fill="#727597"/>
<path d="M31.5552 19.5157C31.0124 18.5218 30.2356 17.7534 29.2251 17.2273C28.2145 16.7011 27.0286 16.4338 25.6589 16.4338C23.2953 16.4338 21.3995 17.2106 19.9797 18.764C18.5598 20.3174 17.8416 22.3887 17.8416 24.9777C17.8416 27.5668 18.5849 29.8969 20.0799 31.4504C21.5748 33.0038 23.6294 33.7805 26.2518 33.7805C28.8743 33.7805 29.5592 33.3212 30.8036 32.4108C32.0396 31.5005 32.95 30.1892 33.5179 28.4771H24.2474V23.0986H40.1409V29.8886C39.598 31.7093 38.6793 33.4047 37.3848 34.9748C36.0903 36.545 34.445 37.8061 32.4489 38.7749C30.4528 39.7437 28.2062 40.2281 25.7006 40.2281C23.1951 40.2281 20.0966 39.5767 17.7748 38.2821C15.453 36.9876 13.649 35.1836 12.3461 32.8785C11.0432 30.5734 10.4001 27.9343 10.4001 24.9777C10.4001 22.0212 11.0432 19.3737 12.3461 17.0519C13.6406 14.7301 15.4446 12.9261 17.7497 11.6232C20.0548 10.3287 22.6856 9.67725 25.6505 9.67725C28.6154 9.67725 32.2651 10.5458 34.7289 12.283C37.1927 14.0202 38.8213 16.4255 39.6231 19.5073H31.5469L31.5552 19.5157Z" fill="#727597"/>
<path d="M31.622 19.5742C31.0791 18.5804 30.3024 17.812 29.2919 17.2859C28.2813 16.7597 27.0953 16.4924 25.7256 16.4924C23.3621 16.4924 21.4662 17.2692 20.0464 18.8226C18.6266 20.376 17.9084 22.4473 17.9084 25.0363C17.9084 27.6254 18.6517 29.9555 20.1466 31.509C21.6416 33.0624 23.6962 33.8391 26.3186 33.8391C28.9411 33.8391 29.6259 33.3798 30.8703 32.4694C32.1064 31.5591 33.0168 30.2478 33.5847 28.5357H24.3142V23.1572H40.2076V29.9472C39.6648 31.7679 38.7461 33.4633 37.4516 35.0334C36.157 36.6035 34.5117 37.8647 32.5156 38.8335C30.5196 39.8023 28.2729 40.2867 25.7674 40.2867C23.2619 40.2867 20.1633 39.6352 17.8415 38.3407C15.5198 37.0462 13.7158 35.2422 12.4129 32.9371C11.11 30.632 10.4669 27.9929 10.4669 25.0363C10.4669 22.0798 11.11 19.4323 12.4129 17.1105C13.7074 14.7887 15.5114 12.9847 17.8165 11.6818C20.1216 10.3873 22.7524 9.73584 25.7173 9.73584C28.6822 9.73584 32.3319 10.6044 34.7957 12.3416C37.2595 14.0788 38.8881 16.4841 39.6898 19.5659H31.6137L31.622 19.5742Z" fill="#727597"/>
<path d="M31.6805 19.6245C31.1376 18.6307 30.3609 17.8623 29.3503 17.3362C28.3398 16.81 27.1538 16.5427 25.7841 16.5427C23.4206 16.5427 21.5247 17.3194 20.1049 18.8729C18.6851 20.4263 17.9668 22.4976 17.9668 25.0866C17.9668 27.6757 18.7101 30.0058 20.2051 31.5592C21.7001 33.1127 23.7546 33.8894 26.3771 33.8894C28.9995 33.8894 29.6844 33.4301 30.9288 32.5197C32.1649 31.6094 33.0752 30.2981 33.6431 28.586H24.3727V23.2075H40.2661V29.9975C39.7232 31.8182 38.8046 33.5136 37.51 35.0837C36.2155 36.6538 34.5702 37.915 32.5741 38.8838C30.578 39.8526 28.3314 40.337 25.8259 40.337C23.3203 40.337 20.2218 39.6855 17.9 38.391C15.5782 37.0965 13.7742 35.2925 12.4714 32.9874C11.1685 30.6823 10.5254 28.0431 10.5254 25.0866C10.5254 22.1301 11.1685 19.4826 12.4714 17.1608C13.7659 14.839 15.5699 13.035 17.875 11.7321C20.1801 10.4376 22.8109 9.78613 25.7758 9.78613C28.7406 9.78613 32.3904 10.6547 34.8542 12.3919C37.3179 14.1291 38.9465 16.5344 39.7483 19.6162H31.6721L31.6805 19.6245Z" fill="#727597"/>
<path d="M31.7389 19.6826C31.1961 18.6888 30.4194 17.9204 29.4088 17.3943C28.3982 16.8681 27.2123 16.6008 25.8426 16.6008C23.479 16.6008 21.5832 17.3776 20.1634 18.931C18.7436 20.4844 18.0253 22.5557 18.0253 25.1447C18.0253 27.7338 18.7686 30.0639 20.2636 31.6174C21.7586 33.1708 23.8131 33.9475 26.4356 33.9475C29.058 33.9475 29.7429 33.4882 30.9873 32.5778C32.2234 31.6675 33.1337 30.3562 33.7016 28.6441H24.4311V23.2656H40.3246V30.0556C39.7817 31.8763 38.863 33.5717 37.5685 35.1418C36.274 36.7119 34.6287 37.9731 32.6326 38.9419C30.6365 39.9107 28.3899 40.3951 25.8843 40.3951C23.3788 40.3951 20.2803 39.7436 17.9585 38.4491C15.6367 37.1546 13.8327 35.3506 12.5298 33.0455C11.227 30.7404 10.5839 28.1013 10.5839 25.1447C10.5839 22.1882 11.227 19.5407 12.5298 17.2189C13.8244 14.8971 15.6283 13.0931 17.9334 11.7902C20.2385 10.4957 22.8693 9.84424 25.8342 9.84424C28.7991 9.84424 32.4488 10.7128 34.9126 12.45C37.3764 14.1872 39.005 16.5925 39.8068 19.6743H31.7306L31.7389 19.6826Z" fill="#727597"/>
<path d="M31.8057 19.7412C31.2629 18.7474 30.4861 17.979 29.4756 17.4529C28.465 16.9267 27.2791 16.6594 25.9094 16.6594C23.5458 16.6594 21.6499 17.4361 20.2301 18.9896C18.8103 20.543 18.0921 22.6143 18.0921 25.2033C18.0921 27.7924 18.8354 30.1225 20.3304 31.6759C21.8253 33.2294 23.8799 34.0061 26.5023 34.0061C29.1248 34.0061 29.8096 33.5468 31.0541 32.6364C32.2901 31.7261 33.2005 30.4148 33.7684 28.7027H24.4979V23.3242H40.3914V30.1142C39.8485 31.9349 38.9298 33.6303 37.6353 35.2004C36.3407 36.7705 34.6954 38.0317 32.6994 39.0005C30.7033 39.9693 28.4567 40.4537 25.9511 40.4537C23.4456 40.4537 20.3471 39.8022 18.0253 38.5077C15.7035 37.2132 13.8995 35.4092 12.5966 33.1041C11.2937 30.799 10.6506 28.1598 10.6506 25.2033C10.6506 22.2468 11.2937 19.5993 12.5966 17.2775C13.8911 14.9557 15.6951 13.1517 18.0002 11.8488C20.3053 10.5543 22.9361 9.90283 25.901 9.90283C28.8659 9.90283 32.5156 10.7714 34.9794 12.5086C37.4432 14.2458 39.0718 16.6511 39.8735 19.7329H31.7974L31.8057 19.7412Z" fill="#727597"/>
<path d="M29.3003 17.4028C28.7574 16.4089 27.9807 15.6406 26.9701 15.1144C25.9596 14.5883 24.7736 14.321 23.4039 14.321C21.0404 14.321 19.1445 15.0977 17.7247 16.6511C16.3049 18.2046 15.5867 20.2758 15.5867 22.8649C15.5867 25.4539 16.33 27.7841 17.8249 29.3375C19.3199 30.891 21.3744 31.6677 23.9969 31.6677C26.6194 31.6677 27.3042 31.2083 28.5486 30.298C29.7847 29.3876 30.695 28.0764 31.263 26.3643H21.9925V20.9857H37.8859V27.7757C37.3431 29.5964 36.4244 31.2918 35.1298 32.862C33.8353 34.4321 32.19 35.6932 30.1939 36.662C28.1979 37.6308 25.9512 38.1153 23.4457 38.1153C20.9402 38.1153 17.8416 37.4638 15.5198 36.1693C13.198 34.8748 11.3941 33.0708 10.0912 30.7657C8.79665 28.4606 8.15356 25.8298 8.15356 22.8649C8.15356 19.9 8.79665 17.2608 10.0995 14.939C11.3941 12.6172 13.198 10.8132 15.5031 9.51037C17.8082 8.22419 20.439 7.57275 23.4039 7.57275C26.3688 7.57275 30.0186 8.44134 32.4823 10.1785C34.9461 11.9157 36.5747 14.321 37.3765 17.4028H29.3003Z" fill="#FA8A5B"/>
</g>
<g clip-path="url(#clip1_4849_940)">
<path d="M50.4898 19.6706C51.431 19.1327 52.4529 18.8369 53.5824 18.8369V24.4574H52.1302C50.8125 24.4574 49.8175 24.7532 49.1452 25.3179C48.4729 25.8827 48.1502 26.8777 48.1502 28.3029V36.3168H42.8524V19.0252H48.1502V21.9026C48.7687 20.9614 49.5486 20.2084 50.4629 19.6437L50.4898 19.6706Z" fill="#727597"/>
<path d="M61.435 19.0249V36.3165H56.1372V19.0249H61.435Z" fill="#727597"/>
<path d="M73.9666 23.4355H71.116V36.3168H65.8183V23.4355H63.9089V19.0252H65.8183V18.5411C65.8183 16.4166 66.4368 14.8031 67.6469 13.7005C68.8571 12.5979 70.6589 12.0332 72.9985 12.0332C75.3381 12.0332 73.6708 12.0332 73.859 12.0601V16.5511C72.8371 16.4973 72.1379 16.6318 71.7345 16.9814C71.3312 17.331 71.116 17.9495 71.116 18.8638V19.0252H73.9666V23.4355Z" fill="#727597"/>
<path d="M76.3869 22.951C77.0592 21.6064 77.9735 20.5845 79.1298 19.8584C80.2862 19.1323 81.577 18.7827 83.0023 18.7827C84.4276 18.7827 85.2881 19.0247 86.2025 19.5357C87.1168 20.0198 87.816 20.6921 88.327 21.4988V19.0516H93.6247V36.3433H88.327V33.8961C87.816 34.7029 87.0899 35.3483 86.1756 35.8592C85.2613 36.3433 84.1856 36.6122 82.9754 36.6122C81.7653 36.6122 80.2862 36.2357 79.1298 35.5096C77.9735 34.7835 77.0592 33.7347 76.3869 32.3901C75.7146 31.0455 75.3918 29.4858 75.3918 27.684C75.3918 25.8822 75.7146 24.3494 76.3869 23.0048V22.951ZM87.2244 24.5376C86.4983 23.7847 85.6109 23.3813 84.5352 23.3813C83.4595 23.3813 82.5989 23.7578 81.846 24.5107C81.1199 25.2637 80.7434 26.3125 80.7434 27.6302C80.7434 28.9479 81.1199 29.9967 81.846 30.7766C82.572 31.5565 83.4595 31.933 84.5352 31.933C85.6109 31.933 86.4714 31.5565 87.2244 30.7766C87.9505 30.0236 88.327 28.9748 88.327 27.6571C88.327 26.3394 87.9505 25.2906 87.2244 24.5376Z" fill="#727597"/>
<path d="M112.853 20.8C114.063 22.1178 114.654 23.9195 114.654 26.2054V36.3168H109.384V26.9314C109.384 25.7751 109.088 24.8876 108.496 24.2422C107.904 23.5968 107.098 23.2741 106.076 23.2741C105.054 23.2741 104.247 23.5968 103.656 24.2422C103.064 24.8876 102.768 25.7751 102.768 26.9314V36.3168H97.4703V19.0252H102.768V21.311C103.306 20.558 104.032 19.9395 104.946 19.5092C105.861 19.0521 106.883 18.8369 108.012 18.8369C110.029 18.8369 111.642 19.4823 112.853 20.8Z" fill="#727597"/>
<path d="M56.5405 16.4164C55.9489 15.8785 55.6531 15.1793 55.6531 14.3995C55.6531 13.6196 55.9489 12.8935 56.5405 12.3288C57.1321 11.7909 57.8851 11.4951 58.8263 11.4951C59.7676 11.4951 60.4937 11.764 61.0853 12.3288C61.6769 12.8666 61.9727 13.5658 61.9727 14.3995C61.9727 15.2331 61.6769 15.8785 61.0853 16.4164C60.4937 16.9542 59.7407 17.25 58.8263 17.25C57.912 17.25 57.1321 16.9811 56.5405 16.4164Z" fill="#727597"/>
<path d="M121.646 35.4827C120.302 34.7566 119.226 33.7347 118.446 32.3901C117.666 31.0455 117.29 29.4858 117.29 27.684C117.29 25.8822 117.693 24.3494 118.473 22.9779C119.253 21.6333 120.329 20.5845 121.7 19.8584C123.072 19.1323 124.604 18.7827 126.299 18.7827C127.993 18.7827 129.526 19.1323 130.897 19.8584C132.269 20.5845 133.344 21.6064 134.124 22.9779C134.904 24.3225 135.308 25.8822 135.308 27.684C135.308 29.4858 134.904 31.0186 134.124 32.3901C133.318 33.7347 132.242 34.7835 130.87 35.5096C129.499 36.2357 127.966 36.5853 126.272 36.5853C124.578 36.5853 123.045 36.2357 121.7 35.5096L121.646 35.4827ZM128.8 30.8573C129.499 30.1043 129.875 29.0555 129.875 27.6571C129.875 26.2587 129.526 25.2099 128.827 24.457C128.127 23.704 127.294 23.3544 126.272 23.3544C125.25 23.3544 124.389 23.7309 123.69 24.457C123.018 25.183 122.668 26.2587 122.668 27.6571C122.668 29.0555 122.991 30.1043 123.663 30.8573C124.336 31.6103 125.169 31.9599 126.191 31.9599C127.213 31.9599 128.074 31.5834 128.773 30.8573H128.8Z" fill="#727597"/>
</g>
<defs>
<clipPath id="clip0_4849_940">
<rect width="32.3214" height="32.881" fill="white" transform="translate(8.06995 7.57275)"/>
</clipPath>
<clipPath id="clip1_4849_940">
<rect width="92.24" height="25.0097" fill="white" transform="translate(42.96 11.4951)"/>
</clipPath>
</defs>
</svg>
